<?xml version="1.0" encoding="UTF-8" standalone="no"?>
<svg
   xmlns:dc="http://purl.org/dc/elements/1.1/"
   xmlns:cc="http://creativecommons.org/ns#"
   xmlns:rdf="http://www.w3.org/1999/02/22-rdf-syntax-ns#"
   xmlns:svg="http://www.w3.org/2000/svg"
   xmlns="http://www.w3.org/2000/svg"
   xmlns:sodipodi="http://sodipodi.sourceforge.net/DTD/sodipodi-0.dtd"
   xmlns:inkscape="http://www.inkscape.org/namespaces/inkscape"
   id="Calque_1"
   data-name="Calque 1"
   viewBox="0 0 450.82001 47.159999"
   version="1.1"
   sodipodi:docname="ID-casquetic-logo-full.svg"
   width="450.82001"
   height="47.16"
   inkscape:version="1.0.2 (e86c870879, 2021-01-15)">
  <metadata
     id="metadata127">
    <rdf:RDF>
      <cc:Work
         rdf:about="">
        <dc:format>image/svg+xml</dc:format>
        <dc:type
           rdf:resource="http://purl.org/dc/dcmitype/StillImage" />
        <dc:title>ID-casquetic-logo-full</dc:title>
      </cc:Work>
    </rdf:RDF>
  </metadata>
  <sodipodi:namedview
     pagecolor="#ffffff"
     bordercolor="#666666"
     borderopacity="1"
     objecttolerance="10"
     gridtolerance="10"
     guidetolerance="10"
     inkscape:pageopacity="0"
     inkscape:pageshadow="2"
     inkscape:window-width="1920"
     inkscape:window-height="1051"
     id="namedview125"
     showgrid="false"
     fit-margin-top="0"
     fit-margin-left="0"
     fit-margin-right="0"
     fit-margin-bottom="0"
     inkscape:zoom="2.3160071"
     inkscape:cx="223.94"
     inkscape:cy="21.485"
     inkscape:window-x="0"
     inkscape:window-y="0"
     inkscape:window-maximized="1"
     inkscape:current-layer="Calque_1" />
  <defs
     id="defs4">
    <style
       id="style2">.cls-1{fill:#ffcc03;}.cls-2{fill:#003f6e;}</style>
  </defs>
  <title
     id="title6">ID-casquetic-logo-full</title>
  <path
     class="cls-1"
     d="m 8.96,25.21 c 0,2.63 1.64,4.13 4.31,4.13 a 21.58,21.58 0 0 0 4.55,-0.54 l 0.52,7 a 32.27,32.27 0 0 1 -6.88,0.74 C 4.73,36.54 0.67,33.4 0.1,27.36 0.03,26.62 0,25.83 0,25.03 v -2.56 c 0,-0.82 0,-1.59 0.1,-2.33 0.57,-6 4.68,-9.2 11.26,-9.2 a 34.17,34.17 0 0 1 7,0.84 l -0.86,7.05 a 18.09,18.09 0 0 0 -4.36,-0.67 3.88,3.88 0 0 0 -4.18,4.18 z"
     id="path8" />
  <path
     class="cls-1"
     d="m 30.15,21.97 h 3.76 v -1 c 0,-1.59 -0.69,-2.7 -3.71,-2.7 a 26.45,26.45 0 0 0 -7.38,1.2 l -1.21,-6.9 a 34,34 0 0 1 9.94,-1.63 c 7.65,0 10.86,2.52 10.86,9.89 v 6.36 c 0,1.29 0.45,1.91 1.32,1.91 a 6.63,6.63 0 0 0 1.58,-0.18 v 6.81 a 12.61,12.61 0 0 1 -4.58,0.84 6,6 0 0 1 -5.44,-2.6 11.82,11.82 0 0 1 -7.1,2.6 c -4.55,0 -7.55,-2.25 -7.55,-7.37 0.08,-5.35 4.88,-7.23 9.51,-7.23 z m 3.76,7.94 V 26.4 h -2.65 a 2,2 0 0 0 -2.2,2.25 2,2 0 0 0 2.13,2.1 5.12,5.12 0 0 0 2.72,-0.84 z"
     id="path10" />
  <path
     class="cls-1"
     d="m 56.65,36.57 a 28.71,28.71 0 0 1 -9,-1.29 l 1,-6.13 a 24.46,24.46 0 0 0 6.56,1.09 c 1.91,0 3,-0.2 3,-1.44 0,-1.24 -1.33,-1.53 -5,-2.45 -3.67,-0.92 -5.64,-2.52 -5.64,-7.47 0,-4.75 3.42,-7.94 10,-7.94 a 39,39 0 0 1 8.29,0.91 l -0.82,6.26 a 33.67,33.67 0 0 0 -6.06,-0.84 c -1.83,0 -2.75,0.42 -2.75,1.58 0,1.16 1.34,1.59 4.38,2.33 4.53,1.14 6.29,3 6.29,7.72 0.02,5.34 -3.69,7.67 -10.25,7.67 z"
     id="path12" />
  <path
     class="cls-1"
     d="m 70.39,21.85 c 0,-7 4.33,-10.91 12.15,-10.91 a 43.66,43.66 0 0 1 11.8,1.46 v 34.76 h -9 V 34.61 a 12.14,12.14 0 0 1 -6.48,2 c -4.75,0 -8.51,-3.24 -8.51,-9.08 z m 14.79,6.31 v -9.55 a 10,10 0 0 0 -2.6,-0.35 2.87,2.87 0 0 0 -3,3.17 v 4.75 c 0,1.85 0.82,3 2.65,3 a 5.16,5.16 0 0 0 2.95,-1.02 z"
     id="path14" />
  <path
     class="cls-1"
     d="m 114.82,36.07 -0.39,-2.35 a 15,15 0 0 1 -8.17,2.85 c -4.62,0 -7.22,-2.55 -7.22,-7.35 V 11.43 h 9.15 v 14.91 a 1.93,1.93 0 0 0 2.15,2.2 5.86,5.86 0 0 0 3.25,-1.17 v -16 h 9.23 v 24.7 z"
     id="path16" />
  <path
     class="cls-2"
     d="m 126.82,21.82 c 0,-7 4.23,-10.88 11.5,-10.88 7,0 11.06,3.93 11.06,11 0,1.95 -0.2,3.39 -0.2,3.86 h -13.52 v 0.71 c 0,2.08 1.61,3.12 5.18,3.12 a 41.64,41.64 0 0 0 7.42,-0.72 l 0.72,6.56 a 38,38 0 0 1 -9.85,1.14 c -7.45,0 -12.27,-3.59 -12.27,-10.54 z m 8.8,-0.24 h 5.42 v -0.7 c 0,-2.07 -0.71,-3.41 -2.72,-3.41 -1.78,0 -2.7,1.14 -2.7,3.07 z"
     id="path18" />
  <path
     class="cls-2"
     d="m 151.28,11.43 h 3 l 0.43,-6.88 h 8.28 v 6.88 h 4.53 v 6.91 h -4.33 v 8.7 c 0,1.74 0.67,2.35 2,2.35 a 23.84,23.84 0 0 0 2.72,-0.24 l 0.44,6.73 a 23.3,23.3 0 0 1 -5.94,0.69 c -4.5,0 -7.22,-1.63 -8,-5.25 -0.78,-3.62 -0.42,-8.58 -0.42,-13 h -2.8 z"
     id="path20" />
  <path
     class="cls-2"
     d="m 180.88,4.26 v 9.18 a 14.41,14.41 0 0 1 7.57,-2.5 c 4.7,0 7.27,2.57 7.27,7.35 v 17.78 h -9.15 V 21.16 a 2,2 0 0 0 -2.18,-2.26 6.35,6.35 0 0 0 -3.32,1.19 v 16 h -9.15 V 4.26 Z"
     id="path22" />
  <path
     class="cls-2"
     d="m 205.13,0 c 3.12,0 4.8,1.39 4.8,4.46 0,3.07 -1.68,4.45 -4.8,4.45 -3.12,0 -4.8,-1.39 -4.8,-4.45 0,-3.06 1.68,-4.46 4.8,-4.46 z m 4.58,11.43 v 24.64 h -9.16 V 11.43 Z"
     id="path24" />
  <path
     class="cls-2"
     d="m 222.82,25.21 c 0,2.63 1.63,4.13 4.3,4.13 a 21.39,21.39 0 0 0 4.53,-0.54 l 0.52,7 a 32.19,32.19 0 0 1 -6.88,0.74 c -6.73,0 -10.78,-3.14 -11.35,-9.18 a 22,22 0 0 1 -0.1,-2.33 v -2.56 a 21.75,21.75 0 0 1 0.1,-2.33 c 0.57,-6 4.67,-9.2 11.25,-9.2 a 34.39,34.39 0 0 1 7,0.84 l -0.87,7.05 a 18.09,18.09 0 0 0 -4.36,-0.67 3.87,3.87 0 0 0 -4.14,4.18 z"
     id="path26" />
  <path
     class="cls-2"
     d="m 244.82,28.96 v 7.61 h -7.88 v -7.61 z"
     id="path28" />
  <path
     class="cls-2"
     d="m 251.82,13.89 h 1.82 v 7.91 h -1.82 z"
     id="path30" />
  <path
     class="cls-2"
     d="m 261.21,18.87 v 2.93 h -1.72 v -2.88 a 0.94,0.94 0 0 0 -1,-1 1,1 0 0 0 -1.06,1 v 2.89 h -1.74 v -5.47 h 1.74 v 0.89 a 1.68,1.68 0 0 1 1.71,-1 c 1.33,-0.05 2.07,0.95 2.07,2.64 z"
     id="path32" />
  <path
     class="cls-2"
     d="m 268.51,18.87 v 2.93 h -1.69 v -2.88 a 0.94,0.94 0 0 0 -1,-1 1,1 0 0 0 -1.07,1 v 2.89 h -1.73 v -5.47 h 1.73 v 0.89 a 1.69,1.69 0 0 1 1.72,-1 c 1.29,-0.05 2.04,0.95 2.04,2.64 z"
     id="path34" />
  <path
     class="cls-2"
     d="m 270,19.04 a 2.93,2.93 0 1 1 2.92,2.87 2.83,2.83 0 0 1 -2.92,-2.87 z m 4.19,0 a 1.28,1.28 0 1 0 -1.28,1.3 1.28,1.28 0 0 0 1.28,-1.29 z"
     id="path36" />
  <path
     class="cls-2"
     d="m 282.67,16.34 -2.34,5.51 h -1.51 l -2.33,-5.51 h 1.85 l 1.24,3.34 1.24,-3.34 z"
     id="path38" />
  <path
     class="cls-2"
     d="m 289.48,16.34 v 5.51 h -1.73 v -0.72 a 1.82,1.82 0 0 1 -1.61,0.83 2.87,2.87 0 0 1 0,-5.73 1.82,1.82 0 0 1 1.61,0.83 v -0.72 z m -1.73,2.78 a 1.28,1.28 0 1 0 -1.27,1.22 1.3,1.3 0 0 0 1.27,-1.27 z"
     id="path40" />
  <path
     class="cls-2"
     d="m 293.49,17.57 v 2.26 a 0.39,0.39 0 0 0 0.44,0.44 h 0.89 v 1.64 h -0.93 c -1.45,0 -2.17,-0.69 -2.17,-2.08 v -2.26 h -1 v -1.23 h 1 v -2 h 1.73 v 2 h 1.37 v 1.28 z"
     id="path42" />
  <path
     class="cls-2"
     d="m 296.01,14.34 a 0.9,0.9 0 1 1 0.9,0.88 0.8,0.8 0 0 1 -0.9,-0.88 z m 0,1.91 h 1.81 v 5.51 h -1.74 z"
     id="path44" />
  <path
     class="cls-2"
     d="m 299.15,19.04 a 2.93,2.93 0 1 1 2.93,2.87 2.84,2.84 0 0 1 -2.93,-2.87 z m 4.19,0 a 1.28,1.28 0 1 0 -1.28,1.3 1.28,1.28 0 0 0 1.28,-1.29 z"
     id="path46" />
  <path
     class="cls-2"
     d="m 312.08,18.87 v 2.93 h -1.73 v -2.88 a 0.94,0.94 0 0 0 -1,-1 1,1 0 0 0 -1.07,1 v 2.89 h -1.73 v -5.47 h 1.73 v 0.89 a 1.68,1.68 0 0 1 1.71,-1 c 1.34,-0.05 2.09,0.95 2.09,2.64 z"
     id="path48" />
  <path
     class="cls-2"
     d="m 319.22,17.57 v 2.26 a 0.39,0.39 0 0 0 0.44,0.44 h 0.92 v 1.64 h -0.92 c -1.46,0 -2.18,-0.69 -2.18,-2.08 v -2.26 h -1 v -1.23 h 1 v -2 h 1.74 v 2 h 1.36 v 1.28 z"
     id="path50" />
  <path
     class="cls-2"
     d="m 326.04,16.18 v 1.65 h -0.66 a 1.5,1.5 0 0 0 -1.67,1.51 v 2.51 h -1.73 v -5.51 h 1.73 v 1.3 c 0,0 0.36,-1.46 1.67,-1.46 z"
     id="path52" />
  <path
     class="cls-2"
     d="m 327.02,14.34 a 0.8,0.8 0 0 1 0.89,-0.87 0.88,0.88 0 1 1 0,1.75 0.8,0.8 0 0 1 -0.89,-0.88 z m 0,1.91 h 1.8 v 5.51 h -1.73 z"
     id="path54" />
  <path
     class="cls-2"
     d="m 335.88,19.55 h -4 a 1.17,1.17 0 0 0 1.28,1 1.41,1.41 0 0 0 1.18,-0.54 l 1.21,0.86 a 3.06,3.06 0 0 1 -2.44,1.07 2.83,2.83 0 0 1 -3,-2.88 2.8,2.8 0 0 1 2.91,-2.85 2.74,2.74 0 0 1 2.85,2.82 z m -1.62,-1 a 1,1 0 0 0 -1.16,-1 1.18,1.18 0 0 0 -1.2,1 z"
     id="path56" />
  <path
     class="cls-2"
     d="m 339.53,17.57 v 2.26 a 0.38,0.38 0 0 0 0.43,0.44 h 0.93 v 1.64 h -0.93 c -1.45,0 -2.17,-0.69 -2.17,-2.08 v -2.26 h -1 v -1.23 h 1 v -2 h 1.74 v 2 h 1.36 v 1.28 z"
     id="path58" />
  <path
     class="cls-2"
     d="m 347.82,18.81 v 3 h -1.73 v -3 a 0.92,0.92 0 0 0 -1,-0.94 1,1 0 0 0 -1.07,1 v 2.88 h -1.74 v -8.13 h 1.74 v 3.5 a 1.7,1.7 0 0 1 1.68,-0.94 c 1.36,0 2.12,1.01 2.12,2.63 z"
     id="path60" />
  <path
     class="cls-2"
     d="m 349.35,14.34 a 0.9,0.9 0 1 1 0.9,0.88 0.8,0.8 0 0 1 -0.9,-0.88 z m 0.05,1.91 h 1.73 v 5.51 h -1.73 z"
     id="path62" />
  <path
     class="cls-2"
     d="m 352.49,19.04 a 2.88,2.88 0 0 1 3,-2.86 2.68,2.68 0 0 1 2.47,1.43 l -1.47,0.76 a 1.24,1.24 0 0 0 -1.05,-0.58 1.27,1.27 0 1 0 0,2.53 1.24,1.24 0 0 0 1,-0.53 l 1.53,0.69 a 2.71,2.71 0 0 1 -2.5,1.43 2.87,2.87 0 0 1 -2.98,-2.87 z"
     id="path64" />
  <path
     class="cls-2"
     d="m 255.11,29.27 v 1.07 h -0.63 c -1.44,0 -1.54,1.59 -1.54,1.59 v 2.92 h -1.12 v -5.51 h 1.17 v 1.17 a 1.66,1.66 0 0 1 1.54,-1.28 z"
     id="path66" />
  <path
     class="cls-2"
     d="m 261.64,32.51 h -4.47 a 1.65,1.65 0 0 0 1.75,1.52 1.81,1.81 0 0 0 1.55,-0.79 l 0.86,0.53 a 2.84,2.84 0 0 1 -2.43,1.23 2.87,2.87 0 0 1 0,-5.73 2.72,2.72 0 0 1 2.79,2.84 z m -1.11,-0.74 a 1.52,1.52 0 0 0 -1.64,-1.5 1.66,1.66 0 0 0 -1.71,1.5 z"
     id="path68" />
  <path
     class="cls-2"
     d="m 263.02,32.12 a 2.82,2.82 0 0 1 2.91,-2.85 2.64,2.64 0 0 1 2.41,1.42 l -1,0.47 a 1.67,1.67 0 0 0 -1.46,-0.81 1.74,1.74 0 0 0 -1.75,1.77 1.77,1.77 0 0 0 1.75,1.81 1.69,1.69 0 0 0 1.44,-0.78 l 1,0.43 a 2.66,2.66 0 0 1 -2.43,1.42 2.83,2.83 0 0 1 -2.87,-2.88 z"
     id="path70" />
  <path
     class="cls-2"
     d="m 275.25,29.34 -2.83,6.7 c -0.46,1.12 -0.81,1.69 -2,1.69 h -0.86 v -1.1 h 0.82 a 0.81,0.81 0 0 0 0.81,-0.59 l 0.47,-1.1 -2.14,-5.6 h 1.24 l 1.55,4.07 1.71,-4.07 z"
     id="path72" />
  <path
     class="cls-2"
     d="m 276.24,32.12 a 2.82,2.82 0 0 1 2.91,-2.85 2.66,2.66 0 0 1 2.41,1.42 l -1,0.47 a 1.67,1.67 0 0 0 -1.44,-0.82 1.74,1.74 0 0 0 -1.75,1.77 1.77,1.77 0 0 0 1.75,1.81 1.7,1.7 0 0 0 1.44,-0.78 l 1,0.43 a 2.67,2.67 0 0 1 -2.43,1.42 2.83,2.83 0 0 1 -2.89,-2.87 z"
     id="path74" />
  <path
     class="cls-2"
     d="m 283.29,26.71 h 1.17 v 8.18 h -1.17 z"
     id="path76" />
  <path
     class="cls-2"
     d="m 292.12,29.34 v 5.51 h -1.16 v -1.02 a 2.12,2.12 0 0 1 -2,1.17 2.87,2.87 0 0 1 0,-5.73 2.12,2.12 0 0 1 2,1.18 v -1.11 z m -1.16,2.77 v 0 a 1.79,1.79 0 1 0 -1.78,1.82 1.78,1.78 0 0 0 1.78,-1.82 z"
     id="path78" />
  <path
     class="cls-2"
     d="m 299.82,29.34 v 5.24 a 2.8,2.8 0 0 1 -3,3 3,3 0 0 1 -2.85,-1.83 l 1,-0.34 a 1.9,1.9 0 0 0 1.85,1.13 1.7,1.7 0 0 0 1.81,-1.91 v -0.76 a 2,2 0 0 1 -1.91,1.13 2.87,2.87 0 0 1 0,-5.73 1.89,1.89 0 0 1 1.88,1.19 v -1.12 z m -1.17,2.76 a 1.77,1.77 0 0 0 -1.83,-1.76 1.79,1.79 0 1 0 1.78,1.78 z"
     id="path80" />
  <path
     class="cls-2"
     d="m 307.18,32.51 h -4.46 a 1.64,1.64 0 0 0 1.74,1.52 1.8,1.8 0 0 0 1.55,-0.79 l 0.86,0.53 a 2.84,2.84 0 0 1 -2.43,1.23 2.87,2.87 0 0 1 0,-5.73 2.71,2.71 0 0 1 2.78,2.84 z m -1.1,-0.74 a 1.53,1.53 0 0 0 -1.65,-1.5 1.64,1.64 0 0 0 -1.7,1.5 z"
     id="path82" />
  <path
     class="cls-2"
     d="m 317.54,26.71 v 8.18 h -1.16 v -1.11 a 2.09,2.09 0 0 1 -2,1.22 2.87,2.87 0 0 1 0,-5.73 2.06,2.06 0 0 1 1.94,1.14 v -3.7 z m -1.16,5.47 v -0.05 a 1.8,1.8 0 1 0 -1.79,1.79 1.75,1.75 0 0 0 1.79,-1.74 z"
     id="path84" />
  <path
     class="cls-2"
     d="m 324.94,32.51 h -4.47 a 1.65,1.65 0 0 0 1.75,1.52 1.81,1.81 0 0 0 1.6,-0.79 l 0.86,0.53 a 2.84,2.84 0 0 1 -2.43,1.23 2.87,2.87 0 0 1 0,-5.73 2.72,2.72 0 0 1 2.79,2.84 z m -1.12,-0.74 a 1.52,1.52 0 0 0 -1.64,-1.5 1.66,1.66 0 0 0 -1.71,1.5 z"
     id="path86" />
  <path
     class="cls-2"
     d="m 326.3,33.53 1,-0.29 a 1.33,1.33 0 0 0 1.31,0.84 c 0.64,0 1,-0.3 1,-0.69 0,-0.39 -0.29,-0.61 -0.86,-0.76 -0.57,-0.15 -2.31,-0.43 -2.31,-1.74 0,-1 1,-1.62 2.06,-1.62 a 2.15,2.15 0 0 1 2.12,1.25 l -1,0.37 a 1.12,1.12 0 0 0 -1.08,-0.69 c -0.48,0 -0.94,0.22 -0.94,0.64 0,0.6 0.91,0.74 1.55,0.91 1.48,0.43 1.63,1.12 1.63,1.56 0,1.12 -1,1.69 -2.16,1.69 a 2.35,2.35 0 0 1 -2.32,-1.47 z"
     id="path88" />
  <path
     class="cls-2"
     d="m 335.32,32.12 a 2.82,2.82 0 0 1 2.91,-2.85 2.66,2.66 0 0 1 2.41,1.42 l -1,0.47 a 1.68,1.68 0 0 0 -1.46,-0.81 1.74,1.74 0 0 0 -1.75,1.77 1.77,1.77 0 0 0 1.75,1.81 1.71,1.71 0 0 0 1.44,-0.78 l 1,0.43 a 2.67,2.67 0 0 1 -2.43,1.42 2.83,2.83 0 0 1 -2.87,-2.88 z"
     id="path90" />
  <path
     class="cls-2"
     d="m 347.82,29.34 v 5.51 h -1.16 v -1.02 a 2.13,2.13 0 0 1 -2,1.17 2.87,2.87 0 0 1 0,-5.73 2.13,2.13 0 0 1 2,1.18 v -1.11 z m -1.16,2.77 v 0 a 1.79,1.79 0 1 0 -1.78,1.82 1.78,1.78 0 0 0 1.77,-1.82 z"
     id="path92" />
  <path
     class="cls-2"
     d="m 349.56,33.53 1,-0.29 a 1.35,1.35 0 0 0 1.31,0.84 c 0.65,0 1,-0.3 1,-0.69 0,-0.39 -0.3,-0.61 -0.86,-0.76 -0.71,-0.19 -2.32,-0.43 -2.32,-1.74 0,-1 1,-1.62 2.07,-1.62 a 2.14,2.14 0 0 1 2.11,1.25 l -1,0.37 a 1.12,1.12 0 0 0 -1.08,-0.69 c -0.48,0 -0.94,0.22 -0.94,0.64 0,0.6 0.92,0.74 1.55,0.91 1.48,0.43 1.64,1.12 1.64,1.56 0,1.12 -1,1.69 -2.16,1.69 a 2.36,2.36 0 0 1 -2.32,-1.47 z"
     id="path94" />
  <path
     class="cls-2"
     d="m 361.22,29.34 v 8.24 h -1.11 v -3.71 a 2,2 0 0 1 -1.88,1.13 2.87,2.87 0 0 1 0,-5.73 2,2 0 0 1 1.89,1.18 v -1.11 z m -1.14,2.74 a 1.7,1.7 0 0 0 -1.69,-1.74 1.73,1.73 0 0 0 -1.7,1.8 1.7,1.7 0 1 0 3.39,0 z"
     id="path96" />
  <path
     class="cls-2"
     d="m 368.32,29.34 v 5.51 h -1.16 v -1 a 1.72,1.72 0 0 1 -1.79,1.1 c -1.29,0 -2.12,-1 -2.12,-2.54 v -3.07 h 1.15 v 3.05 a 1.3,1.3 0 0 0 1.31,1.45 1.4,1.4 0 0 0 1.45,-1.5 v -3 z"
     id="path98" />
  <path
     class="cls-2"
     d="m 375.7,32.51 h -4.46 a 1.65,1.65 0 0 0 1.75,1.52 1.82,1.82 0 0 0 1.55,-0.79 l 0.86,0.53 a 2.85,2.85 0 0 1 -2.44,1.23 2.87,2.87 0 0 1 0,-5.73 2.71,2.71 0 0 1 2.78,2.84 z m -1.1,-0.74 a 1.52,1.52 0 0 0 -1.65,-1.5 1.64,1.64 0 0 0 -1.7,1.5 z"
     id="path100" />
  <path
     class="cls-2"
     d="m 377.06,33.53 1,-0.29 a 1.33,1.33 0 0 0 1.31,0.84 c 0.64,0 1,-0.3 1,-0.69 0,-0.39 -0.29,-0.61 -0.86,-0.76 -0.57,-0.15 -2.31,-0.43 -2.31,-1.74 0,-1 1,-1.62 2.06,-1.62 a 2.17,2.17 0 0 1 2.12,1.25 l -1,0.37 A 1.11,1.11 0 0 0 379.3,30.2 c -0.48,0 -0.93,0.22 -0.93,0.64 0,0.6 0.91,0.74 1.54,0.91 1.49,0.43 1.64,1.12 1.64,1.56 0,1.12 -1,1.69 -2.16,1.69 a 2.37,2.37 0 0 1 -2.33,-1.47 z"
     id="path102" />
  <path
     class="cls-2"
     d="m 392,26.71 v 8.18 h -1.18 v -1.11 a 2.09,2.09 0 0 1 -2,1.22 2.87,2.87 0 0 1 0,-5.73 2.06,2.06 0 0 1 2,1.14 v -3.7 z m -1.18,5.47 v -0.05 a 1.8,1.8 0 1 0 -1.79,1.79 1.75,1.75 0 0 0 1.79,-1.74 z"
     id="path104" />
  <path
     class="cls-2"
     d="m 399.39,32.51 h -4.46 a 1.64,1.64 0 0 0 1.74,1.52 1.8,1.8 0 0 0 1.55,-0.79 l 0.87,0.53 a 2.87,2.87 0 0 1 -2.44,1.23 2.87,2.87 0 0 1 0,-5.73 2.71,2.71 0 0 1 2.78,2.84 z m -1.1,-0.74 a 1.53,1.53 0 0 0 -1.65,-1.5 1.64,1.64 0 0 0 -1.7,1.5 z"
     id="path106" />
  <path
     class="cls-2"
     d="m 403.82,32.12 a 2.82,2.82 0 0 1 2.91,-2.85 2.64,2.64 0 0 1 2.41,1.42 l -1,0.47 a 1.67,1.67 0 0 0 -1.42,-0.82 1.74,1.74 0 0 0 -1.75,1.77 1.77,1.77 0 0 0 1.75,1.81 1.69,1.69 0 0 0 1.44,-0.78 l 1,0.43 a 2.66,2.66 0 0 1 -2.43,1.42 2.83,2.83 0 0 1 -2.91,-2.87 z"
     id="path108" />
  <path
     class="cls-2"
     d="m 416.02,31.79 v 3.1 h -1.15 v -3.1 a 1.27,1.27 0 0 0 -1.3,-1.39 1.43,1.43 0 0 0 -1.51,1.51 v 3 h -1.17 v -8.2 h 1.17 v 3.63 a 1.84,1.84 0 0 1 1.82,-1.06 c 1.31,-0.01 2.14,0.95 2.14,2.51 z"
     id="path110" />
  <path
     class="cls-2"
     d="m 423.61,29.34 v 5.51 h -1.15 v -1.02 a 2.13,2.13 0 0 1 -2,1.17 2.87,2.87 0 0 1 0,-5.73 2.13,2.13 0 0 1 2,1.18 v -1.11 z m -1.15,2.77 v 0 a 1.79,1.79 0 1 0 -1.78,1.82 1.78,1.78 0 0 0 1.78,-1.82 z"
     id="path112" />
  <path
     class="cls-2"
     d="m 430.82,31.82 v 3.07 h -1.14 v -3 a 1.29,1.29 0 0 0 -1.3,-1.45 1.44,1.44 0 0 0 -1.51,1.51 v 3 h -1.15 v -5.61 h 1.16 v 1 a 1.85,1.85 0 0 1 1.84,-1.09 c 1.28,0.02 2.1,0.97 2.1,2.57 z"
     id="path114" />
  <path
     class="cls-2"
     d="m 434.37,30.27 v 3 a 0.51,0.51 0 0 0 0.59,0.59 h 0.91 v 1.1 h -0.91 a 1.52,1.52 0 0 1 -1.75,-1.62 v -3 h -1 v -1 h 1 v -1.87 h 1.16 v 1.87 h 1.5 v 0.89 z"
     id="path116" />
  <path
     class="cls-2"
     d="m 437.22,27.59 a 0.69,0.69 0 1 1 0.69,0.67 0.61,0.61 0 0 1 -0.69,-0.67 z m 0.11,1.79 h 1.16 v 5.51 h -1.16 z"
     id="path118" />
  <path
     class="cls-2"
     d="m 445.82,32.51 h -4.5 a 1.65,1.65 0 0 0 1.75,1.52 1.81,1.81 0 0 0 1.55,-0.79 l 0.86,0.53 a 2.84,2.84 0 0 1 -2.43,1.23 2.87,2.87 0 0 1 0,-5.73 2.72,2.72 0 0 1 2.77,2.84 z m -1.11,-0.74 a 1.52,1.52 0 0 0 -1.64,-1.5 1.66,1.66 0 0 0 -1.71,1.5 z"
     id="path120" />
  <path
     class="cls-2"
     d="m 450.82,29.27 v 1.07 h -0.63 c -1.44,0 -1.54,1.59 -1.54,1.59 v 2.92 h -1.16 v -5.51 h 1.16 v 1.17 a 1.66,1.66 0 0 1 1.54,-1.28 z"
     id="path122" />
</svg>
