<?xml version="1.0" encoding="UTF-8" standalone="no"?>
<svg
   xmlns:dc="http://purl.org/dc/elements/1.1/"
   xmlns:cc="http://creativecommons.org/ns#"
   xmlns:rdf="http://www.w3.org/1999/02/22-rdf-syntax-ns#"
   xmlns:svg="http://www.w3.org/2000/svg"
   xmlns="http://www.w3.org/2000/svg"
   xmlns:sodipodi="http://sodipodi.sourceforge.net/DTD/sodipodi-0.dtd"
   xmlns:inkscape="http://www.inkscape.org/namespaces/inkscape"
   id="Calque_1"
   data-name="Calque 1"
   viewBox="0 0 269.45002 47.159999"
   version="1.1"
   sodipodi:docname="ID-icionrecycle-logo.svg"
   width="269.45001"
   height="47.16"
   inkscape:version="1.0.2 (e86c870879, 2021-01-15)">
  <metadata
     id="metadata37">
    <rdf:RDF>
      <cc:Work
         rdf:about="">
        <dc:format>image/svg+xml</dc:format>
        <dc:type
           rdf:resource="http://purl.org/dc/dcmitype/StillImage" />
        <dc:title>ID-icionrecycle-logo</dc:title>
      </cc:Work>
    </rdf:RDF>
  </metadata>
  <sodipodi:namedview
     pagecolor="#ffffff"
     bordercolor="#666666"
     borderopacity="1"
     objecttolerance="10"
     gridtolerance="10"
     guidetolerance="10"
     inkscape:pageopacity="0"
     inkscape:pageshadow="2"
     inkscape:window-width="1920"
     inkscape:window-height="1051"
     id="namedview35"
     showgrid="false"
     fit-margin-top="0"
     fit-margin-left="0"
     fit-margin-right="0"
     fit-margin-bottom="0"
     inkscape:zoom="3.8904859"
     inkscape:cx="136.365"
     inkscape:cy="17.875"
     inkscape:window-x="0"
     inkscape:window-y="0"
     inkscape:window-maximized="1"
     inkscape:current-layer="Calque_1" />
  <defs
     id="defs4">
    <style
       id="style2">.cls-1{fill:#003f6e;}.cls-2{fill:#b1dc4c;}</style>
  </defs>
  <title
     id="title6">ID-icionrecycle-logo</title>
  <path
     class="cls-1"
     d="M 4.8,0 C 7.91,0 9.6,1.39 9.6,4.46 9.6,7.53 7.91,8.91 4.8,8.91 1.69,8.91 0,7.52 0,4.46 0,1.4 1.68,0 4.8,0 Z M 9.37,11.43 V 36.07 H 0.22 V 11.43 Z"
     id="path8" />
  <path
     class="cls-1"
     d="m 22.52,25.21 c 0,2.63 1.63,4.13 4.3,4.13 a 21.49,21.49 0 0 0 4.53,-0.54 l 0.52,7 a 32.19,32.19 0 0 1 -6.88,0.74 c -6.73,0 -10.79,-3.14 -11.36,-9.18 -0.07,-0.74 -0.1,-1.53 -0.1,-2.33 v -2.56 c 0,-0.82 0,-1.59 0.1,-2.33 0.57,-6 4.68,-9.2 11.26,-9.2 a 34.17,34.17 0 0 1 7,0.84 l -0.86,7.05 a 18.09,18.09 0 0 0 -4.35,-0.67 3.87,3.87 0 0 0 -4.15,4.16 z"
     id="path10" />
  <path
     class="cls-1"
     d="m 40.14,0 c 3.11,0 4.8,1.39 4.8,4.46 0,3.07 -1.69,4.45 -4.8,4.45 -3.11,0 -4.8,-1.39 -4.8,-4.45 C 35.34,1.4 37.02,0 40.14,0 Z m 4.54,11.43 V 36.07 H 35.56 V 11.43 Z"
     id="path12" />
  <path
     class="cls-2"
     d="m 48.88,21.73 c 0,-7 4.45,-10.81 12.09,-10.81 7.64,0 12.1,3.81 12.1,10.81 v 4 c 0,7 -4.48,10.79 -12.1,10.79 -7.62,0 -12.09,-3.71 -12.09,-10.74 z m 9.15,4.72 c 0,1.91 1,3.12 2.94,3.12 1.94,0 2.95,-1.21 2.95,-3.12 v -5.39 c 0,-1.88 -1,-3.15 -2.95,-3.15 -1.95,0 -2.94,1.27 -2.94,3.15 z"
     id="path14" />
  <path
     class="cls-2"
     d="m 85.18,11.43 0.39,2.35 a 15.47,15.47 0 0 1 8.19,-2.84 c 4.7,0 7.28,2.57 7.28,7.35 V 36.07 H 91.88 V 21.16 a 2,2 0 0 0 -2.2,-2.26 6.32,6.32 0 0 0 -3.31,1.19 v 16 H 77.21 V 11.43 Z"
     id="path16" />
  <path
     class="cls-1"
     d="m 113.78,11.43 0.42,2.87 c 1.78,-1.53 4.65,-3.34 7.55,-3.36 v 8.71 A 14.84,14.84 0 0 0 115,21.6 v 14.47 h -9.16 V 11.43 Z"
     id="path18" />
  <path
     class="cls-1"
     d="m 159.61,25.21 c 0,2.63 1.63,4.13 4.3,4.13 a 21.49,21.49 0 0 0 4.53,-0.54 l 0.52,7 a 32.19,32.19 0 0 1 -6.88,0.74 c -6.73,0 -10.79,-3.14 -11.35,-9.18 a 22,22 0 0 1 -0.1,-2.33 v -2.56 a 21.75,21.75 0 0 1 0.1,-2.33 c 0.56,-6 4.67,-9.2 11.25,-9.2 a 34.17,34.17 0 0 1 7,0.84 l -0.86,7.05 a 18.09,18.09 0 0 0 -4.36,-0.67 3.87,3.87 0 0 0 -4.15,4.16 z"
     id="path20" />
  <path
     class="cls-1"
     d="m 176.81,47.16 3.44,-11.09 h -3.12 l -6.95,-24.64 h 9.62 l 3.51,17 3.79,-17 h 10 l -7.57,24.64 -3.56,11.09 z"
     id="path22" />
  <path
     class="cls-1"
     d="m 208.06,25.21 c 0,2.63 1.63,4.13 4.31,4.13 a 21.37,21.37 0 0 0 4.52,-0.54 l 0.52,7 a 32.19,32.19 0 0 1 -6.88,0.74 c -6.72,0 -10.78,-3.14 -11.35,-9.18 a 22,22 0 0 1 -0.1,-2.33 v -2.56 a 21.75,21.75 0 0 1 0.1,-2.33 c 0.57,-6 4.67,-9.2 11.26,-9.2 a 34.37,34.37 0 0 1 7,0.84 l -0.87,7.05 a 18,18 0 0 0 -4.35,-0.67 3.88,3.88 0 0 0 -4.16,4.16 z"
     id="path24" />
  <path
     class="cls-1"
     d="M 230.26,0.35 V 36.07 H 221.1 V 0.35 Z"
     id="path26" />
  <path
     class="cls-1"
     d="m 234.35,21.82 c 0,-7 4.23,-10.88 11.5,-10.88 7,0 11.06,3.93 11.06,11 0,1.95 -0.2,3.39 -0.2,3.86 h -13.56 v 0.71 c 0,2.08 1.61,3.12 5.18,3.12 a 41.64,41.64 0 0 0 7.42,-0.72 l 0.72,6.56 a 38,38 0 0 1 -9.85,1.14 c -7.45,0 -12.27,-3.59 -12.27,-10.54 z m 8.8,-0.24 h 5.42 v -0.7 c 0,-2.07 -0.71,-3.41 -2.72,-3.41 -1.78,0 -2.7,1.14 -2.7,3.07 z"
     id="path28" />
  <path
     class="cls-1"
     d="m 124.37,21.82 c 0,-7 4.23,-10.88 11.5,-10.88 7,0 11.06,3.93 11.06,11 0,1.95 -0.2,3.39 -0.2,3.86 h -13.55 v 0.71 c 0,2.08 1.6,3.12 5.17,3.12 a 41.64,41.64 0 0 0 7.42,-0.72 l 0.72,6.56 a 38,38 0 0 1 -9.81,1.1 c -7.45,0 -12.27,-3.59 -12.27,-10.54 z m 8.81,-0.24 h 5.41 v -0.7 c 0,-2.07 -0.71,-3.41 -2.72,-3.41 -1.78,0 -2.69,1.14 -2.69,3.07 z"
     id="path30" />
  <path
     class="cls-1"
     d="m 269.45,28.85 v 7.61 h -7.87 v -7.61 z"
     id="path32" />
</svg>
