<?xml version="1.0" encoding="UTF-8" standalone="no"?>
<svg
   xmlns:dc="http://purl.org/dc/elements/1.1/"
   xmlns:cc="http://creativecommons.org/ns#"
   xmlns:rdf="http://www.w3.org/1999/02/22-rdf-syntax-ns#"
   xmlns:svg="http://www.w3.org/2000/svg"
   xmlns="http://www.w3.org/2000/svg"
   xmlns:sodipodi="http://sodipodi.sourceforge.net/DTD/sodipodi-0.dtd"
   xmlns:inkscape="http://www.inkscape.org/namespaces/inkscape"
   id="Calque_1"
   data-name="Calque 1"
   viewBox="0 0 297.76001 38.240001"
   version="1.1"
   sodipodi:docname="ID-moble-logo-full.svg"
   width="297.76001"
   height="38.240002"
   inkscape:version="1.0.2 (e86c870879, 2021-01-15)">
  <metadata
     id="metadata103">
    <rdf:RDF>
      <cc:Work
         rdf:about="">
        <dc:format>image/svg+xml</dc:format>
        <dc:type
           rdf:resource="http://purl.org/dc/dcmitype/StillImage" />
        <dc:title>ID-moble-logo-full</dc:title>
      </cc:Work>
    </rdf:RDF>
  </metadata>
  <sodipodi:namedview
     pagecolor="#ffffff"
     bordercolor="#666666"
     borderopacity="1"
     objecttolerance="10"
     gridtolerance="10"
     guidetolerance="10"
     inkscape:pageopacity="0"
     inkscape:pageshadow="2"
     inkscape:window-width="1920"
     inkscape:window-height="1051"
     id="namedview101"
     showgrid="false"
     fit-margin-top="0"
     fit-margin-left="0"
     fit-margin-right="0"
     fit-margin-bottom="0"
     inkscape:zoom="2.3160071"
     inkscape:cx="127.69"
     inkscape:cy="18.025"
     inkscape:window-x="0"
     inkscape:window-y="0"
     inkscape:window-maximized="1"
     inkscape:current-layer="Calque_1" />
  <defs
     id="defs4">
    <style
       id="style2">.cls-1{fill:#003f6e;}.cls-2{fill:#54dfc3;}</style>
  </defs>
  <title
     id="title6">ID-moble-logo-full</title>
  <path
     class="cls-1"
     d="m 7.94,11.42 0.39,2.38 a 14.43,14.43 0 0 1 8,-2.77 c 3,0 5,1.11 6.21,3 a 15.24,15.24 0 0 1 8.29,-3.07 c 4.62,0 7.19,2.57 7.19,7.35 V 36.06 H 28.87 V 21.15 c 0,-1.44 -0.69,-2.26 -2.13,-2.26 a 5.81,5.81 0 0 0 -3.14,1.22 v 16 H 14.47 V 21.15 c 0,-1.44 -0.67,-2.26 -2.11,-2.26 A 6,6 0 0 0 9.15,20.13 V 36.06 H 0 V 11.42 Z"
     id="path8" />
  <path
     class="cls-2"
     d="m 42.01,21.74 c 0,-7 4.45,-10.81 12.1,-10.81 7.65,0 12.09,3.78 12.09,10.81 v 4 c 0,7 -4.47,10.79 -12.09,10.79 -7.62,0 -12.1,-3.76 -12.1,-10.79 z M 48.12,0 c 3.12,0 4.8,1.38 4.8,4.47 0,3.09 -1.68,4.46 -4.8,4.46 C 45,8.93 43.32,7.54 43.32,4.47 43.32,1.4 45,0 48.12,0 Z m 3,25.77 c 0,2.15 0.7,3.81 2.95,3.81 2.25,0 2.94,-1.66 2.94,-3.81 v -4 c 0,-2 -0.67,-3.84 -2.94,-3.84 -1.93,0 -2.95,1.27 -2.95,3.15 z M 60.05,0 c 3.12,0 4.8,1.38 4.8,4.47 0,3.09 -1.68,4.46 -4.8,4.46 -3.12,0 -4.8,-1.39 -4.8,-4.46 C 55.25,1.4 56.98,0 60.09,0 Z"
     id="path10" />
  <path
     class="cls-1"
     d="m 94.36,25.67 c 0,7 -4.35,10.89 -12.66,10.89 A 33.27,33.27 0 0 1 70.37,34.77 V 0.34 H 79.3 V 13.18 A 11.29,11.29 0 0 1 86,10.93 c 4.7,0 8.36,3.26 8.36,9.05 z M 79.57,19.46 v 9.55 a 9.64,9.64 0 0 0 2.48,0.35 3,3 0 0 0 3.21,-3.22 v -4.75 c 0,-1.88 -0.84,-3 -2.7,-3 a 5,5 0 0 0 -2.99,1.07 z"
     id="path12" />
  <path
     class="cls-1"
     d="M 107.66,0.34 V 36.06 H 98.51 V 0.34 Z"
     id="path14" />
  <path
     class="cls-1"
     d="m 111.75,21.81 c 0,-7 4.23,-10.88 11.5,-10.88 7,0 11.06,3.93 11.06,11 0,2 -0.2,3.39 -0.2,3.86 h -13.54 v 0.71 c 0,2.08 1.61,3.12 5.17,3.12 a 41.64,41.64 0 0 0 7.42,-0.72 l 0.72,6.56 a 37.85,37.85 0 0 1 -9.84,1.14 c -7.45,0 -12.27,-3.59 -12.27,-10.54 z m 8.8,-0.24 h 5.42 v -0.69 c 0,-2.07 -0.72,-3.41 -2.72,-3.41 -1.78,0 -2.7,1.14 -2.7,3.07 z"
     id="path16" />
  <path
     class="cls-1"
     d="m 148.57,28.45 v 7.61 h -7.88 v -7.61 z"
     id="path18" />
  <path
     class="cls-1"
     d="m 155.57,14.42 h 1.82 v 7.91 h -1.82 z"
     id="path20" />
  <path
     class="cls-1"
     d="m 164.96,19.4 v 2.93 h -1.72 v -2.88 a 0.94,0.94 0 0 0 -1,-1 1,1 0 0 0 -1.06,1 v 2.89 h -1.74 v -5.52 h 1.74 v 0.89 a 1.68,1.68 0 0 1 1.71,-1 c 1.33,0 2.07,1 2.07,2.69 z"
     id="path22" />
  <path
     class="cls-1"
     d="m 172.26,19.4 v 2.93 h -1.69 v -2.88 a 0.94,0.94 0 0 0 -1,-1 1,1 0 0 0 -1.07,1 v 2.89 h -1.73 v -5.52 h 1.73 v 0.89 a 1.69,1.69 0 0 1 1.72,-1 c 1.29,0 2.04,1 2.04,2.69 z"
     id="path24" />
  <path
     class="cls-1"
     d="m 173.75,19.57 a 2.93,2.93 0 1 1 2.92,2.87 2.83,2.83 0 0 1 -2.92,-2.87 z m 4.19,0 a 1.28,1.28 0 1 0 -1.28,1.31 1.28,1.28 0 0 0 1.28,-1.3 z"
     id="path26" />
  <path
     class="cls-1"
     d="m 186.42,16.82 -2.34,5.51 h -1.51 l -2.33,-5.51 h 1.85 l 1.24,3.34 1.24,-3.34 z"
     id="path28" />
  <path
     class="cls-1"
     d="m 193.23,16.82 v 5.51 h -1.73 v -0.72 a 1.82,1.82 0 0 1 -1.61,0.83 2.87,2.87 0 0 1 0,-5.73 1.82,1.82 0 0 1 1.61,0.83 v -0.72 z m -1.73,2.78 a 1.28,1.28 0 1 0 -1.27,1.28 1.3,1.3 0 0 0 1.27,-1.28 z"
     id="path30" />
  <path
     class="cls-1"
     d="m 197.24,18.1 v 2.26 a 0.39,0.39 0 0 0 0.44,0.44 h 0.89 v 1.64 h -0.93 c -1.45,0 -2.17,-0.7 -2.17,-2.08 V 18.1 h -1 v -1.28 h 1 v -1.94 h 1.73 v 1.91 h 1.37 v 1.28 z"
     id="path32" />
  <path
     class="cls-1"
     d="m 199.76,14.88 a 0.9,0.9 0 1 1 0.9,0.88 0.8,0.8 0 0 1 -0.9,-0.88 z m 0,1.91 h 1.81 v 5.51 h -1.74 z"
     id="path34" />
  <path
     class="cls-1"
     d="m 202.9,19.57 a 2.93,2.93 0 1 1 2.93,2.87 2.84,2.84 0 0 1 -2.93,-2.87 z m 4.19,0 a 1.28,1.28 0 1 0 -1.28,1.31 1.28,1.28 0 0 0 1.28,-1.3 z"
     id="path36" />
  <path
     class="cls-1"
     d="m 215.83,19.4 v 2.93 h -1.73 v -2.88 a 0.94,0.94 0 0 0 -1,-1 1,1 0 0 0 -1.07,1 v 2.89 h -1.73 v -5.52 h 1.73 v 0.89 a 1.68,1.68 0 0 1 1.71,-1 c 1.34,0 2.09,1 2.09,2.69 z"
     id="path38" />
  <path
     class="cls-1"
     d="m 222.97,18.1 v 2.26 a 0.39,0.39 0 0 0 0.44,0.44 h 0.92 v 1.64 h -0.92 c -1.46,0 -2.18,-0.7 -2.18,-2.08 V 18.1 h -1 v -1.28 h 1 v -1.94 h 1.74 v 1.91 h 1.36 v 1.28 z"
     id="path40" />
  <path
     class="cls-1"
     d="m 229.79,16.71 v 1.65 h -0.66 a 1.5,1.5 0 0 0 -1.67,1.46 v 2.51 h -1.73 v -5.51 h 1.73 v 1.35 c 0,0 0.36,-1.46 1.67,-1.46 z"
     id="path42" />
  <path
     class="cls-1"
     d="m 230.77,14.88 a 0.8,0.8 0 0 1 0.89,-0.87 0.88,0.88 0 1 1 0,1.75 0.8,0.8 0 0 1 -0.89,-0.88 z m 0,1.91 h 1.8 v 5.51 h -1.73 z"
     id="path44" />
  <path
     class="cls-1"
     d="m 239.63,20.07 h -4 a 1.17,1.17 0 0 0 1.28,1 1.41,1.41 0 0 0 1.18,-0.54 l 1.21,0.86 a 3.06,3.06 0 0 1 -2.44,1.07 2.83,2.83 0 0 1 -3,-2.88 2.8,2.8 0 0 1 2.91,-2.85 2.74,2.74 0 0 1 2.85,2.82 z m -1.62,-1 a 1,1 0 0 0 -1.16,-1 1.19,1.19 0 0 0 -1.2,1 z"
     id="path46" />
  <path
     class="cls-1"
     d="m 243.28,18.1 v 2.26 a 0.38,0.38 0 0 0 0.43,0.44 h 0.93 v 1.64 h -0.93 c -1.45,0 -2.17,-0.7 -2.17,-2.08 V 18.1 h -1 v -1.28 h 1 v -1.94 h 1.74 v 1.91 h 1.36 v 1.28 z"
     id="path48" />
  <path
     class="cls-1"
     d="m 251.57,19.34 v 3 h -1.73 v -3 a 0.92,0.92 0 0 0 -1,-0.94 1,1 0 0 0 -1.07,1 v 2.88 h -1.74 v -8.13 h 1.74 v 3.5 a 1.7,1.7 0 0 1 1.68,-0.94 c 1.36,0 2.12,1.01 2.12,2.63 z"
     id="path50" />
  <path
     class="cls-1"
     d="m 253.1,14.88 a 0.9,0.9 0 1 1 0.9,0.88 0.8,0.8 0 0 1 -0.9,-0.88 z m 0.05,1.91 h 1.73 v 5.51 h -1.73 z"
     id="path52" />
  <path
     class="cls-1"
     d="m 256.24,19.57 a 2.88,2.88 0 0 1 3,-2.86 2.68,2.68 0 0 1 2.47,1.43 l -1.47,0.76 a 1.24,1.24 0 0 0 -1.05,-0.58 1.27,1.27 0 1 0 0,2.53 1.24,1.24 0 0 0 1,-0.53 l 1.53,0.69 a 2.71,2.71 0 0 1 -2.5,1.43 2.87,2.87 0 0 1 -2.98,-2.87 z"
     id="path54" />
  <path
     class="cls-1"
     d="m 164.48,32.36 v 3.06 h -1.13 v -3 a 1.31,1.31 0 0 0 -1.36,-1.45 1.37,1.37 0 0 0 -1.42,1.47 v 3 h -1.16 v -3 a 1.3,1.3 0 0 0 -1.33,-1.45 1.36,1.36 0 0 0 -1.41,1.51 v 3 h -1.1 v -5.62 h 1.16 v 1 a 1.78,1.78 0 0 1 1.78,-1.13 2,2 0 0 1 1.92,1.3 2,2 0 0 1 2,-1.3 2.27,2.27 0 0 1 2.05,2.61 z"
     id="path56" />
  <path
     class="cls-1"
     d="m 166.19,32.66 a 2.91,2.91 0 1 1 2.91,2.87 2.81,2.81 0 0 1 -2.91,-2.87 z m 4.7,0 a 1.8,1.8 0 1 0 -1.8,1.8 1.76,1.76 0 0 0 1.8,-1.8 z"
     id="path58" />
  <path
     class="cls-1"
     d="m 179.66,32.66 a 2.78,2.78 0 0 1 -2.76,2.87 2.13,2.13 0 0 1 -2,-1.17 v 1.06 h -1.13 v -8.18 h 1.17 v 3.71 a 2.11,2.11 0 0 1 1.95,-1.15 2.77,2.77 0 0 1 2.77,2.86 z m -1.16,0 a 1.78,1.78 0 1 0 -1.78,1.8 1.79,1.79 0 0 0 1.78,-1.8 z"
     id="path60" />
  <path
     class="cls-1"
     d="m 181.23,28.12 a 0.61,0.61 0 0 1 0.69,-0.66 0.67,0.67 0 1 1 0,1.33 0.61,0.61 0 0 1 -0.69,-0.67 z m 0.11,1.79 h 1.16 v 5.51 h -1.16 z"
     id="path62" />
  <path
     class="cls-1"
     d="m 184.5,27.24 h 1.17 v 8.18 h -1.17 z"
     id="path64" />
  <path
     class="cls-1"
     d="m 187.57,28.12 a 0.61,0.61 0 0 1 0.68,-0.66 0.67,0.67 0 1 1 0,1.33 0.61,0.61 0 0 1 -0.68,-0.67 z m 0.1,1.76 h 1.15 v 5.51 h -1.15 z"
     id="path66" />
  <path
     class="cls-1"
     d="m 196.12,33.04 h -4.46 a 1.64,1.64 0 0 0 1.74,1.52 1.81,1.81 0 0 0 1.55,-0.79 l 0.86,0.53 a 2.84,2.84 0 0 1 -2.43,1.23 2.87,2.87 0 0 1 0,-5.73 2.71,2.71 0 0 1 2.78,2.84 z m -1.1,-0.74 a 1.53,1.53 0 0 0 -1.65,-1.5 1.64,1.64 0 0 0 -1.7,1.5 z"
     id="path68" />
  <path
     class="cls-1"
     d="m 201.17,29.8 v 1.08 h -0.6 c -1.45,0 -1.54,1.6 -1.54,1.6 v 2.92 h -1.17 v -5.52 h 1.17 v 1.2 a 1.65,1.65 0 0 1 1.54,-1.28 z"
     id="path70" />
  <path
     class="cls-1"
     d="m 211.23,27.24 v 8.18 h -1.15 v -1.11 a 2.1,2.1 0 0 1 -2,1.22 2.87,2.87 0 0 1 0,-5.73 2.07,2.07 0 0 1 1.94,1.14 v -3.7 z m -1.15,5.46 v 0 a 1.8,1.8 0 1 0 -1.79,1.79 1.75,1.75 0 0 0 1.79,-1.79 z"
     id="path72" />
  <path
     class="cls-1"
     d="m 218.63,33.04 h -4.46 a 1.64,1.64 0 0 0 1.74,1.52 1.8,1.8 0 0 0 1.55,-0.79 l 0.86,0.53 a 2.84,2.84 0 0 1 -2.43,1.23 2.87,2.87 0 0 1 0,-5.73 2.71,2.71 0 0 1 2.78,2.84 z m -1.1,-0.74 a 1.53,1.53 0 0 0 -1.65,-1.5 1.64,1.64 0 0 0 -1.7,1.5 z"
     id="path74" />
  <path
     class="cls-1"
     d="m 224.95,30.8 v 3 a 0.52,0.52 0 0 0 0.59,0.59 h 0.92 v 1.1 h -0.89 a 1.52,1.52 0 0 1 -1.77,-1.61 v -3 h -1 v -1 h 1 V 28 h 1.15 v 1.88 h 1.51 v 0.89 z"
     id="path76" />
  <path
     class="cls-1"
     d="m 231.36,29.8 v 1.08 h -0.64 c -1.44,0 -1.53,1.6 -1.53,1.6 v 2.92 h -1.17 v -5.52 h 1.17 v 1.2 a 1.64,1.64 0 0 1 1.53,-1.28 z"
     id="path78" />
  <path
     class="cls-1"
     d="m 232.57,28.12 a 0.61,0.61 0 0 1 0.68,-0.66 0.67,0.67 0 1 1 0,1.33 0.61,0.61 0 0 1 -0.68,-0.67 z m 0.1,1.79 h 1.16 v 5.51 h -1.16 z"
     id="path80" />
  <path
     class="cls-1"
     d="m 244.19,33.04 h -4.46 a 1.65,1.65 0 0 0 1.75,1.52 1.82,1.82 0 0 0 1.55,-0.79 l 0.86,0.53 a 2.85,2.85 0 0 1 -2.44,1.23 2.87,2.87 0 0 1 0,-5.73 2.71,2.71 0 0 1 2.78,2.84 z m -1.1,-0.74 a 1.52,1.52 0 0 0 -1.65,-1.5 1.64,1.64 0 0 0 -1.7,1.5 z m -1.47,-3.3 -0.7,-0.27 0.83,-1.47 0.9,0.33 z"
     id="path82" />
  <path
     class="cls-1"
     d="m 245.57,32.65 a 2.82,2.82 0 0 1 2.91,-2.85 2.66,2.66 0 0 1 2.41,1.42 l -1,0.47 a 1.68,1.68 0 0 0 -1.46,-0.81 1.74,1.74 0 0 0 -1.75,1.77 1.77,1.77 0 0 0 1.75,1.81 1.7,1.7 0 0 0 1.44,-0.78 l 1,0.43 a 2.67,2.67 0 0 1 -2.43,1.42 2.83,2.83 0 0 1 -2.87,-2.88 z"
     id="path84" />
  <path
     class="cls-1"
     d="m 252.17,32.66 a 2.91,2.91 0 1 1 2.92,2.87 2.82,2.82 0 0 1 -2.92,-2.87 z m 4.71,0 a 1.8,1.8 0 1 0 -1.8,1.8 1.76,1.76 0 0 0 1.8,-1.8 z"
     id="path86" />
  <path
     class="cls-1"
     d="m 259.39,32.23 h 3.92 v 1 h -3.92 z"
     id="path88" />
  <path
     class="cls-1"
     d="m 264.71,32.65 a 2.82,2.82 0 0 1 2.91,-2.85 2.66,2.66 0 0 1 2.41,1.42 l -1,0.47 a 1.7,1.7 0 0 0 -1.46,-0.81 1.73,1.73 0 0 0 -1.74,1.77 1.76,1.76 0 0 0 1.74,1.81 1.72,1.72 0 0 0 1.45,-0.78 l 1,0.43 a 2.67,2.67 0 0 1 -2.45,1.42 2.83,2.83 0 0 1 -2.86,-2.88 z"
     id="path90" />
  <path
     class="cls-1"
     d="m 271.3,32.66 a 2.91,2.91 0 1 1 2.92,2.87 2.82,2.82 0 0 1 -2.92,-2.87 z m 4.71,0 a 1.8,1.8 0 1 0 -1.8,1.8 1.76,1.76 0 0 0 1.8,-1.8 z"
     id="path92" />
  <path
     class="cls-1"
     d="m 284,32.35 v 3.07 h -1.15 v -3 a 1.29,1.29 0 0 0 -1.28,-1.49 1.44,1.44 0 0 0 -1.51,1.51 v 3 h -1.17 v -5.56 h 1.17 v 1 a 1.83,1.83 0 0 1 1.83,-1.09 c 1.28,0.01 2.11,0.96 2.11,2.56 z"
     id="path94" />
  <path
     class="cls-1"
     d="m 288.72,35.53 v 0.4 c 0.69,0.09 1.51,0.36 1.51,1.13 0,0.77 -0.72,1.18 -1.68,1.18 A 2.51,2.51 0 0 1 287.5,38 v -0.67 a 3,3 0 0 0 1,0.21 c 0.49,0 0.91,-0.21 0.91,-0.5 0,-0.29 -0.69,-0.56 -1.39,-0.56 v -1 a 2.87,2.87 0 0 1 0.58,-5.68 2.64,2.64 0 0 1 2.41,1.42 l -1,0.47 a 1.67,1.67 0 0 0 -1.44,-0.81 1.74,1.74 0 0 0 -1.75,1.77 1.77,1.77 0 0 0 1.75,1.81 1.69,1.69 0 0 0 1.44,-0.78 l 1,0.43 a 2.63,2.63 0 0 1 -2.29,1.42 z"
     id="path96" />
  <path
     class="cls-1"
     d="m 297.76,29.88 v 5.51 h -1.19 v -1 a 1.73,1.73 0 0 1 -1.79,1.1 c -1.3,0 -2.13,-1 -2.13,-2.54 v -3.07 h 1.16 v 3 a 1.3,1.3 0 0 0 1.31,1.45 1.4,1.4 0 0 0 1.45,-1.45 v -3 z"
     id="path98" />
</svg>
