<?xml version="1.0" encoding="UTF-8" standalone="no"?>
<svg
   xmlns:dc="http://purl.org/dc/elements/1.1/"
   xmlns:cc="http://creativecommons.org/ns#"
   xmlns:rdf="http://www.w3.org/1999/02/22-rdf-syntax-ns#"
   xmlns:svg="http://www.w3.org/2000/svg"
   xmlns="http://www.w3.org/2000/svg"
   xmlns:sodipodi="http://sodipodi.sourceforge.net/DTD/sodipodi-0.dtd"
   xmlns:inkscape="http://www.inkscape.org/namespaces/inkscape"
   id="Calque_1"
   data-name="Calque 1"
   viewBox="0 0 264.66001 83.510753"
   version="1.1"
   sodipodi:docname="ID-triethic-logo-principal-2coul.svg"
   width="264.66"
   height="83.51075"
   inkscape:version="1.0.2 (e86c870879, 2021-01-15)">
  <metadata
     id="metadata77">
    <rdf:RDF>
      <cc:Work
         rdf:about="">
        <dc:format>image/svg+xml</dc:format>
        <dc:type
           rdf:resource="http://purl.org/dc/dcmitype/StillImage" />
        <dc:title>ID-triethic-logo-principal-2coul</dc:title>
      </cc:Work>
    </rdf:RDF>
  </metadata>
  <sodipodi:namedview
     pagecolor="#ffffff"
     bordercolor="#666666"
     borderopacity="1"
     objecttolerance="10"
     gridtolerance="10"
     guidetolerance="10"
     inkscape:pageopacity="0"
     inkscape:pageshadow="2"
     inkscape:window-width="1920"
     inkscape:window-height="1051"
     id="namedview75"
     showgrid="false"
     fit-margin-top="0"
     fit-margin-left="0"
     fit-margin-right="0"
     fit-margin-bottom="0"
     inkscape:zoom="3.920163"
     inkscape:cx="142.525"
     inkscape:cy="41.590749"
     inkscape:window-x="0"
     inkscape:window-y="0"
     inkscape:window-maximized="1"
     inkscape:current-layer="Calque_1" />
  <defs
     id="defs4">
    <style
       id="style2">.cls-1{fill:#003f6e;}.cls-2{fill:#007eff;}.cls-3{fill:#fff;}</style>
  </defs>
  <title
     id="title6">ID-triethic-logo-principal-2coul</title>
  <path
     class="cls-1"
     d="m 77.65,77.780752 v 1.4 h -0.67 a 2.34,2.34 0 0 1 -2.42,-1.22 l -2.28,-3.43 H 70.8 v 4.53 h -1.84 v -12.17 h 4.73 a 3.55,3.55 0 0 1 3.69,3.87 c 0,1.82 -0.89,3.65 -3.17,3.77 l 1.72,2.53 c 0.51,0.73 0.83,0.75 1.32,0.75 z m -6.85,-4.84 h 2.77 c 1.45,0 2,-1.11 2,-2.23 a 1.94,1.94 0 0 0 -1.94,-2.2 h -2.8 z"
     id="path8" />
  <path
     class="cls-1"
     d="m 88.17,75.430752 h -6.8 a 2.53,2.53 0 0 0 2.67,2.35 2.77,2.77 0 0 0 2.38,-1.22 l 1.32,0.81 a 4.33,4.33 0 0 1 -3.73,1.91 4.44,4.44 0 0 1 0,-8.87 4.17,4.17 0 0 1 4.26,4.39 z m -1.68,-1.15 a 2.36,2.36 0 0 0 -2.53,-2.34 2.53,2.53 0 0 0 -2.6,2.34 z"
     id="path10" />
  <path
     class="cls-1"
     d="m 90.32,74.820752 a 4.34,4.34 0 0 1 4.46,-4.41 4,4 0 0 1 3.69,2.19 l -1.5,0.73 a 2.56,2.56 0 0 0 -2.24,-1.25 2.67,2.67 0 0 0 -2.67,2.74 2.72,2.72 0 0 0 2.67,2.81 2.62,2.62 0 0 0 2.21,-1.22 l 1.55,0.67 a 4.07,4.07 0 0 1 -3.72,2.2 4.36,4.36 0 0 1 -4.45,-4.46 z"
     id="path12" />
  <path
     class="cls-1"
     d="m 109.05,70.570752 -4.33,10.32 c -0.7,1.74 -1.24,2.62 -3,2.62 h -1.31 v -1.71 h 1.25 a 1.24,1.24 0 0 0 1.24,-0.91 l 0.72,-1.71 -3.33,-8.61 h 1.88 l 2.37,6.31 2.63,-6.31 z"
     id="path14" />
  <path
     class="cls-1"
     d="m 110.56,74.820752 a 4.34,4.34 0 0 1 4.46,-4.41 4.07,4.07 0 0 1 3.7,2.19 l -1.51,0.73 a 2.55,2.55 0 0 0 -2.24,-1.25 2.67,2.67 0 0 0 -2.67,2.74 2.73,2.73 0 0 0 2.67,2.81 2.6,2.6 0 0 0 2.21,-1.22 l 1.55,0.67 a 4.07,4.07 0 0 1 -3.72,2.2 4.36,4.36 0 0 1 -4.45,-4.46 z"
     id="path16" />
  <path
     class="cls-1"
     d="m 121.37,66.430752 h 1.8 v 12.68 h -1.8 z"
     id="path18" />
  <path
     class="cls-1"
     d="m 134.47,75.430752 h -6.84 a 2.53,2.53 0 0 0 2.68,2.35 2.77,2.77 0 0 0 2.37,-1.22 l 1.32,0.81 a 4.46,4.46 0 0 1 -8.12,-2.55 4.24,4.24 0 0 1 4.34,-4.41 4.16,4.16 0 0 1 4.26,4.39 z m -1.69,-1.15 a 2.36,2.36 0 0 0 -2.52,-2.34 2.54,2.54 0 0 0 -2.61,2.34 z"
     id="path20" />
  <path
     class="cls-1"
     d="m 142.17,70.410752 v 1.7 h -1 c -2.21,0 -2.36,2.47 -2.36,2.47 v 4.53 h -1.78 v -8.54 h 1.78 v 1.81 a 2.55,2.55 0 0 1 2.36,-2 z"
     id="path22" />
  <path
     class="cls-1"
     d="m 143.72,80.970752 a 6.22,6.22 0 0 0 1.2,-3.89 h 1.65 a 5.88,5.88 0 0 1 -1.87,4.35 z"
     id="path24" />
  <path
     class="cls-1"
     d="m 158.02,79.280752 v 0.61 c 1.05,0.13 2.3,0.56 2.3,1.74 0,1.18 -1.1,1.83 -2.57,1.83 a 3.68,3.68 0 0 1 -1.61,-0.38 v -1 a 4.47,4.47 0 0 0 1.54,0.32 c 0.75,0 1.39,-0.32 1.39,-0.77 0,-0.68 -1.05,-0.87 -2.12,-0.87 v -1.55 a 4.44,4.44 0 0 1 0.89,-8.79 4.05,4.05 0 0 1 3.69,2.19 l -1.5,0.73 a 2.57,2.57 0 0 0 -2.24,-1.25 2.67,2.67 0 0 0 -2.67,2.74 2.72,2.72 0 0 0 2.67,2.81 2.6,2.6 0 0 0 2.2,-1.22 l 1.56,0.67 a 4,4 0 0 1 -3.53,2.19 z"
     id="path26" />
  <path
     class="cls-1"
     d="m 172.72,70.570752 v 8.54 h -1.78 v -1.64 a 3.23,3.23 0 0 1 -3,1.81 4.44,4.44 0 0 1 0,-8.87 3.24,3.24 0 0 1 3,1.82 v -1.66 z m -1.78,4.3 v -0.07 a 2.8,2.8 0 1 0 0,0.07 z"
     id="path28" />
  <path
     class="cls-1"
     d="m 188.43,70.570752 -3.57,8.54 h -1.69 l -3.56,-8.54 h 1.89 l 2.49,6.4 2.51,-6.4 z"
     id="path30" />
  <path
     class="cls-1"
     d="m 198.97,70.570752 v 8.54 h -1.8 v -1.64 a 3.24,3.24 0 0 1 -3,1.81 4.44,4.44 0 0 1 0,-8.87 3.25,3.25 0 0 1 3,1.82 v -1.66 z m -1.8,4.32 v -0.07 a 2.8,2.8 0 1 0 0,0.07 z"
     id="path32" />
  <path
     class="cls-1"
     d="m 202.17,66.430752 h 1.79 v 12.68 h -1.79 z"
     id="path34" />
  <path
     class="cls-1"
     d="m 206.68,74.890752 a 4.46,4.46 0 1 1 4.46,4.44 4.33,4.33 0 0 1 -4.46,-4.44 z m 7.21,0 a 2.76,2.76 0 1 0 -2.76,2.79 2.74,2.74 0 0 0 2.76,-2.79 z"
     id="path36" />
  <path
     class="cls-1"
     d="m 223.4,70.410752 v 1.7 h -1 c -2.21,0 -2.36,2.47 -2.36,2.47 v 4.53 h -1.79 v -8.54 h 1.79 v 1.81 a 2.53,2.53 0 0 1 2.36,-2 z"
     id="path38" />
  <path
     class="cls-1"
     d="m 225.26,67.800752 a 1.05,1.05 0 1 1 1.05,1 0.94,0.94 0 0 1 -1.05,-1 z m 0.16,2.77 h 1.75 v 8.54 h -1.77 z"
     id="path40" />
  <path
     class="cls-1"
     d="m 229.73,77.000752 1.56,-0.44 a 2,2 0 0 0 2,1.3 c 1,0 1.55,-0.47 1.55,-1.08 0,-0.61 -0.45,-1 -1.32,-1.17 -1.08,-0.3 -3.54,-0.67 -3.54,-2.7 0,-1.57 1.49,-2.5 3.16,-2.5 a 3.29,3.29 0 0 1 3.24,1.92 l -1.52,0.58 a 1.72,1.72 0 0 0 -1.69,-1.02 c -0.74,0 -1.44,0.34 -1.44,1 0,0.93 1.4,1.13 2.37,1.4 2.28,0.66 2.51,1.74 2.51,2.42 0,1.74 -1.57,2.62 -3.31,2.62 a 3.62,3.62 0 0 1 -3.57,-2.33 z"
     id="path42" />
  <path
     class="cls-1"
     d="m 247.46,75.430752 h -6.84 a 2.53,2.53 0 0 0 2.68,2.35 2.77,2.77 0 0 0 2.37,-1.22 l 1.32,0.81 a 4.46,4.46 0 0 1 -8.12,-2.55 4.24,4.24 0 0 1 4.34,-4.41 4.16,4.16 0 0 1 4.26,4.39 z m -1.69,-1.15 a 2.36,2.36 0 0 0 -2.52,-2.34 2.54,2.54 0 0 0 -2.61,2.34 z"
     id="path44" />
  <path
     class="cls-2"
     d="M 34.31,1.4307522 A 10.16,10.16 0 0 0 27.17,13.940752 l 1.16,4.23 5.61,-1.54 A 10.17,10.17 0 0 0 41.05,4.1207522 l -1,-3.71999997 a 0.54,0.54 0 0 0 -0.67,-0.38 z m 3,2.51 a 0.66,0.66 0 0 1 -0.56,0.75 6.91,6.91 0 0 0 -5.13,3.11 5.8,5.8 0 0 0 -0.28,5.1799998 0.66,0.66 0 0 1 -0.39,0.85 h -0.06 a 0.65,0.65 0 0 1 -0.79,-0.4 7.2,7.2 0 0 1 0.38,-6.3299998 8.23,8.23 0 0 1 6.08,-3.74 0.66,0.66 0 0 1 0.71,0.58 z"
     id="path46" />
  <path
     class="cls-2"
     d="m 22.94,49.700752 v 0 a 13.32,13.32 0 0 1 -8.18,-2.61 8.73,8.73 0 0 1 -3.74,-6.56 v -14.43 c 0,-2.44 2,-2.44 6.74,-2.44 h 0.79 a 0.44,0.44 0 0 1 0.48,0.38 v 4 a 0.41,0.41 0 0 0 0.43,0.37 5.15,5.15 0 0 0 0.58,0 c 1.9,0 5.48,-1.71 5.48,-1.71 0,0 0,2.8 0,4.79 v 0.12 l -0.08,0.09 c -0.04,0.08 -1.27,1.49 -5.27,1.49 h -0.61 c -0.27,0 -0.5,0.17 -0.5,0.38 v 5 c 0,0.75 0.21,4.51 4.36,4.51 h 0.51 c 2.24,-0.09 8.62,-1.14 10.74,-3.19 0.14,-0.12 0.26,-0.26 0.4,-0.39 0,-2.86 -0.08,-5.47 -0.08,-5.47 l -0.08,-1.14 q 0,-1.19 -0.06,-2.46 c 0,-0.13 0,-0.27 0,-0.43 a 11.67,11.67 0 0 0 -3.68,-9.38 c -2.89,-2.55 -7.33,-3.85 -13.17,-3.87 -0.2,0 -0.53,0 -1,0 -7.85,0 -17,3.58 -17,13.67 v 12.55 c 0,10.09 9.16,13.67 17,13.67 0.43,0 0.76,0 1,0 8.21,0 10.27,-1.31 13.16,-3.86 a 10.6,10.6 0 0 0 3.35,-5.56 c 0.07,-0.32 -0.36,-0.56 -0.71,-0.4 -3.38,1.5 -7.61,2.84 -10.12,2.91"
     id="path48" />
  <path
     class="cls-2"
     d="m 24.85,27.020752 c 0,0 0.67,-0.34 0.67,0.38 0,0.72 0.9,-0.46 0.9,-0.46 l 0.17,-1.27 h -2.14 z"
     id="path50" />
  <path
     class="cls-2"
     d="m 25.37,31.800752 a 0.78,0.78 0 0 0 0.16,-0.49 c 0,-0.3 0.65,-0.11 0.65,-0.11 l -0.11,0.75 z"
     id="path52" />
  <path
     class="cls-3"
     d="m 34.88,39.720752 a 0.66,0.66 0 0 0 0.19,-0.47 c 0,-0.22 0.28,0.28 0.28,0.28 l -0.28,0.36 c 0,0 -0.27,-0.07 -0.19,-0.17 z"
     id="path54" />
  <path
     class="cls-1"
     d="m 65.39,24.890752 h 3.53 l 0.49,-8 h 9.61 v 8 h 5.26 v 8 h -5 v 10.1 c 0,2 0.78,2.73 2.33,2.73 a 26.43,26.43 0 0 0 3.15,-0.29 l 0.52,7.8 a 26.67,26.67 0 0 1 -6.89,0.81 c -5.22,0 -8.37,-1.9 -9.24,-6.08 -0.87,-4.18 -0.48,-10 -0.48,-15.07 h -3.28 z"
     id="path56" />
  <path
     class="cls-1"
     d="m 98.51,24.890752 0.49,3.32 c 2.07,-1.78 5.4,-3.87 8.75,-3.9 v 10.1 a 17.38,17.38 0 0 0 -7.83,2.27 v 16.81 H 89.33 v -28.6 z"
     id="path58" />
  <path
     class="cls-1"
     d="m 116.74,11.660752 c 3.62,0 5.57,1.61 5.57,5.16 0,3.55 -1.95,5.17 -5.57,5.17 -3.62,0 -5.57,-1.61 -5.57,-5.17 0,-3.56 2,-5.16 5.57,-5.16 z m 5.31,13.23 v 28.6 h -10.62 v -28.6 z"
     id="path60" />
  <path
     class="cls-2"
     d="m 126.76,36.970752 c 0,-8.12 4.91,-12.63 13.34,-12.63 8.1,0 12.83,4.56 12.83,12.71 0,1.17 -0.06,2.17 -0.12,3 a 1.75,1.75 0 0 1 -1.64,1.56 l -14.17,0.75 v 0 c 0,2.41 1.86,3.62 6,3.62 a 48.24,48.24 0 0 0 8.61,-0.84 l 0.83,7.61 a 43.91,43.91 0 0 1 -11.42,1.32 c -8.63,0 -14.23,-4.16 -14.23,-12.23 z m 10.22,-0.29 h 6.28 v -0.79 c 0,-2.41 -0.83,-4 -3.16,-4 -2.06,0 -3.12,1.32 -3.12,3.55 z"
     id="path62" />
  <path
     class="cls-2"
     d="m 155.09,24.890752 h 3.53 l 0.49,-8 h 9.61 v 8 h 5.25 v 8 h -5 v 10.1 c 0,2 0.77,2.73 2.32,2.73 a 26.65,26.65 0 0 0 3.16,-0.29 l 0.52,7.8 a 26.67,26.67 0 0 1 -6.89,0.81 c -5.22,0 -8.38,-1.9 -9.24,-6.08 -0.86,-4.18 -0.49,-10 -0.49,-15.07 h -3.24 z"
     id="path64" />
  <path
     class="cls-2"
     d="m 189.41,16.830752 v 10.41 a 16.77,16.77 0 0 1 8.78,-2.9 c 5.46,0 8.44,3 8.44,8.52 v 20.63 h -10.62 v -17.3 a 2.3,2.3 0 0 0 -2.52,-2.61 7.36,7.36 0 0 0 -3.85,1.38 v 18.53 h -10.61 v -36.66 z"
     id="path66" />
  <path
     class="cls-2"
     d="m 217.54,11.660752 c 3.61,0 5.57,1.61 5.57,5.16 0,3.55 -2,5.17 -5.57,5.17 -3.57,0 -5.57,-1.61 -5.57,-5.17 0,-3.56 1.95,-5.16 5.57,-5.16 z m 5.31,13.23 v 28.6 h -10.62 v -28.6 z"
     id="path68" />
  <path
     class="cls-2"
     d="m 238.09,40.890752 c 0,3 1.89,4.79 5,4.79 a 24.85,24.85 0 0 0 5.25,-0.63 l 0.61,8.15 a 37.05,37.05 0 0 1 -8,0.86 c -7.8,0 -12.51,-3.65 -13.17,-10.65 a 26.24,26.24 0 0 1 -0.12,-2.69 v -3 a 25.86,25.86 0 0 1 0.12,-2.69 c 0.66,-6.92 5.42,-10.68 13.06,-10.68 a 39.38,39.38 0 0 1 8.12,1 l -1,8.17 a 21.33,21.33 0 0 0 -5.05,-0.77 4.49,4.49 0 0 0 -4.82,4.82 z"
     id="path70" />
  <path
     class="cls-2"
     d="m 264.66,44.350752 v 9 h -9.32 v -9 z"
     id="path72" />
</svg>
