<?xml version="1.0" encoding="UTF-8" standalone="no"?>
<svg
   xmlns:dc="http://purl.org/dc/elements/1.1/"
   xmlns:cc="http://creativecommons.org/ns#"
   xmlns:rdf="http://www.w3.org/1999/02/22-rdf-syntax-ns#"
   xmlns:svg="http://www.w3.org/2000/svg"
   xmlns="http://www.w3.org/2000/svg"
   xmlns:sodipodi="http://sodipodi.sourceforge.net/DTD/sodipodi-0.dtd"
   xmlns:inkscape="http://www.inkscape.org/namespaces/inkscape"
   id="Calque_1"
   data-name="Calque 1"
   viewBox="0 0 440.10999 38.259998"
   version="1.1"
   sodipodi:docname="ID-vimethic-logo-full.svg"
   width="440.10999"
   height="38.259998"
   inkscape:version="1.0.2 (e86c870879, 2021-01-15)">
  <metadata
     id="metadata135">
    <rdf:RDF>
      <cc:Work
         rdf:about="">
        <dc:format>image/svg+xml</dc:format>
        <dc:type
           rdf:resource="http://purl.org/dc/dcmitype/StillImage" />
        <dc:title>ID-vimethic-logo-full</dc:title>
      </cc:Work>
    </rdf:RDF>
  </metadata>
  <sodipodi:namedview
     pagecolor="#ffffff"
     bordercolor="#666666"
     borderopacity="1"
     objecttolerance="10"
     gridtolerance="10"
     guidetolerance="10"
     inkscape:pageopacity="0"
     inkscape:pageshadow="2"
     inkscape:window-width="1920"
     inkscape:window-height="1051"
     id="namedview133"
     showgrid="false"
     fit-margin-top="0"
     fit-margin-left="0"
     fit-margin-right="0"
     fit-margin-bottom="0"
     inkscape:zoom="2.3149873"
     inkscape:cx="182.87"
     inkscape:cy="27.455"
     inkscape:window-x="0"
     inkscape:window-y="0"
     inkscape:window-maximized="1"
     inkscape:current-layer="Calque_1" />
  <defs
     id="defs4">
    <style
       id="style2">.cls-1{fill:#ff417f;}.cls-2{fill:#003f6e;}</style>
  </defs>
  <title
     id="title6">ID-vimethic-logo-full</title>
  <path
     class="cls-1"
     d="M 26.29,11.42 19.04,36.06 H 7.2 L 0,11.42 h 9.62 l 3.51,16.4 3.49,-16.4 z"
     id="path8" />
  <path
     class="cls-1"
     d="m 33.62,0 c 3.12,0 4.8,1.38 4.8,4.45 0,3.07 -1.68,4.45 -4.8,4.45 -3.12,0 -4.8,-1.39 -4.8,-4.45 C 28.82,1.39 30.48,0 33.62,0 Z M 38.2,11.42 V 36.06 H 29.02 V 11.42 Z"
     id="path10" />
  <path
     class="cls-1"
     d="m 51.17,11.42 0.4,2.38 a 14.43,14.43 0 0 1 8,-2.77 c 3,0 5,1.11 6.21,3 a 15.34,15.34 0 0 1 8.29,-3.06 c 4.62,0 7.2,2.57 7.2,7.34 V 36.06 H 72.11 V 21.14 c 0,-1.43 -0.69,-2.25 -2.12,-2.25 a 5.81,5.81 0 0 0 -3.14,1.21 v 16 H 57.67 V 21.14 c 0,-1.43 -0.67,-2.25 -2.1,-2.25 a 6,6 0 0 0 -3.22,1.24 V 36.06 H 43.2 V 11.42 Z"
     id="path12" />
  <path
     class="cls-2"
     d="m 85.15,21.81 c 0,-7 4.23,-10.88 11.5,-10.88 7,0 11.05,3.93 11.05,11 0,2 -0.19,3.38 -0.19,3.85 H 93.95 v 0.72 c 0,2.08 1.61,3.12 5.17,3.12 a 41.64,41.64 0 0 0 7.42,-0.72 l 0.72,6.55 a 37.5,37.5 0 0 1 -9.85,1.14 c -7.44,0 -12.26,-3.58 -12.26,-10.53 z m 8.8,-0.25 h 5.42 v -0.69 c 0,-2.08 -0.72,-3.41 -2.72,-3.41 -1.78,0 -2.7,1.14 -2.7,3.06 z"
     id="path14" />
  <path
     class="cls-2"
     d="m 109.62,11.42 h 3 l 0.42,-6.87 h 8.29 v 6.87 h 4.53 v 6.89 h -4.34 v 8.71 c 0,1.73 0.67,2.35 2,2.35 a 23.14,23.14 0 0 0 2.72,-0.25 l 0.45,6.73 a 23.37,23.37 0 0 1 -5.94,0.69 c -4.5,0 -7.22,-1.63 -8,-5.24 -0.78,-3.61 -0.42,-8.58 -0.42,-13 h -2.71 z"
     id="path16" />
  <path
     class="cls-2"
     d="m 139.16,4.31 v 9.09 a 14.44,14.44 0 0 1 7.57,-2.5 c 4.7,0 7.27,2.57 7.27,7.34 v 17.82 h -9.15 V 21.14 a 2,2 0 0 0 -2.17,-2.25 6.35,6.35 0 0 0 -3.32,1.19 v 16 h -9.15 V 4.31 Z"
     id="path18" />
  <path
     class="cls-2"
     d="m 163.42,0 c 3.11,0 4.8,1.38 4.8,4.45 0,3.07 -1.69,4.45 -4.8,4.45 -3.11,0 -4.8,-1.39 -4.8,-4.45 0,-3.06 1.68,-4.45 4.8,-4.45 z m 4.57,11.42 v 24.64 h -9.15 V 11.42 Z"
     id="path20" />
  <path
     class="cls-2"
     d="m 181.14,25.2 c 0,2.62 1.63,4.13 4.3,4.13 a 22.18,22.18 0 0 0 4.53,-0.54 l 0.52,7 a 31.63,31.63 0 0 1 -6.88,0.74 c -6.73,0 -10.78,-3.14 -11.35,-9.17 a 22.22,22.22 0 0 1 -0.1,-2.33 v -2.6 a 21.68,21.68 0 0 1 0.1,-2.32 c 0.57,-6 4.67,-9.2 11.25,-9.2 a 34.27,34.27 0 0 1 7,0.84 l -0.87,7 a 17.88,17.88 0 0 0 -4.35,-0.67 3.87,3.87 0 0 0 -4.15,4.23 z"
     id="path22" />
  <path
     class="cls-2"
     d="m 203.83,28.45 v 7.61 h -7.88 v -7.61 z"
     id="path24" />
  <path
     class="cls-2"
     d="m 210.9,14.42 h 1.83 v 7.89 h -1.83 z"
     id="path26" />
  <path
     class="cls-2"
     d="m 220.27,19.4 v 2.91 h -1.72 v -2.86 a 0.94,0.94 0 0 0 -1,-1.06 1,1 0 0 0 -1.07,1.05 v 2.87 h -1.74 v -5.49 h 1.74 v 0.89 a 1.68,1.68 0 0 1 1.71,-1 c 1.34,0 2.08,1 2.08,2.69 z"
     id="path28" />
  <path
     class="cls-2"
     d="m 227.62,19.4 v 2.91 h -1.72 v -2.86 a 1,1 0 0 0 -1,-1.06 1,1 0 0 0 -1.06,1.05 v 2.87 h -1.74 v -5.49 h 1.74 v 0.89 a 1.68,1.68 0 0 1 1.71,-1 c 1.28,0 2.07,1 2.07,2.69 z"
     id="path30" />
  <path
     class="cls-2"
     d="m 229.06,19.57 a 2.93,2.93 0 1 1 2.93,2.87 2.84,2.84 0 0 1 -2.93,-2.87 z m 4.19,0 a 1.28,1.28 0 1 0 -1.27,1.27 1.28,1.28 0 0 0 1.27,-1.26 z"
     id="path32" />
  <path
     class="cls-2"
     d="m 241.74,16.82 -2.35,5.49 h -1.5 l -2.34,-5.51 h 1.86 l 1.21,3.36 1.22,-3.34 z"
     id="path34" />
  <path
     class="cls-2"
     d="m 248.54,16.82 v 5.49 h -1.73 v -0.7 a 1.82,1.82 0 0 1 -1.61,0.83 2.87,2.87 0 0 1 0,-5.73 1.82,1.82 0 0 1 1.61,0.83 v -0.72 z m -1.73,2.77 a 1.28,1.28 0 1 0 -1.27,1.28 1.29,1.29 0 0 0 1.27,-1.28 z"
     id="path36" />
  <path
     class="cls-2"
     d="m 252.55,18.1 v 2.26 a 0.38,0.38 0 0 0 0.44,0.43 h 0.93 v 1.65 h -0.93 c -1.45,0 -2.17,-0.7 -2.17,-2.08 V 18.1 h -1 v -1.28 h 1 v -1.91 h 1.73 v 1.91 h 1.37 v 1.28 z"
     id="path38" />
  <path
     class="cls-2"
     d="m 255.07,14.91 a 0.9,0.9 0 1 1 0.9,0.88 0.8,0.8 0 0 1 -0.9,-0.88 z m 0.05,1.91 h 1.73 v 5.49 h -1.73 z"
     id="path40" />
  <path
     class="cls-2"
     d="m 258.21,19.57 a 2.93,2.93 0 1 1 2.93,2.87 2.84,2.84 0 0 1 -2.93,-2.87 z m 4.19,0 a 1.28,1.28 0 1 0 -1.27,1.27 1.28,1.28 0 0 0 1.27,-1.26 z"
     id="path42" />
  <path
     class="cls-2"
     d="m 271.14,19.4 v 2.91 h -1.72 v -2.86 a 1,1 0 0 0 -1,-1.06 1,1 0 0 0 -1.06,1.05 v 2.87 h -1.74 v -5.49 h 1.74 v 0.89 a 1.68,1.68 0 0 1 1.71,-1 c 1.33,0 2.07,1 2.07,2.69 z"
     id="path44" />
  <path
     class="cls-2"
     d="m 278.28,18.1 v 2.26 c 0,0.29 0.14,0.43 0.44,0.43 h 0.9 v 1.65 h -0.93 c -1.45,0 -2.17,-0.7 -2.17,-2.08 V 18.1 h -1 v -1.28 h 1 v -1.91 h 1.73 v 1.91 h 1.37 v 1.28 z"
     id="path46" />
  <path
     class="cls-2"
     d="m 285.1,16.71 v 1.65 h -0.65 a 1.5,1.5 0 0 0 -1.67,1.46 v 2.49 h -1.74 v -5.49 h 1.74 v 1.34 c 0,0 0.36,-1.45 1.67,-1.45 z"
     id="path48" />
  <path
     class="cls-2"
     d="m 286.08,14.91 a 0.8,0.8 0 0 1 0.89,-0.87 0.88,0.88 0 1 1 -0.89,0.87 z m 0,1.91 h 1.74 v 5.49 h -1.7 z"
     id="path50" />
  <path
     class="cls-2"
     d="m 294.95,20.07 h -4 a 1.16,1.16 0 0 0 1.27,1 1.4,1.4 0 0 0 1.18,-0.53 l 1.21,0.86 a 3,3 0 0 1 -2.43,1.07 2.84,2.84 0 0 1 -3,-2.88 2.8,2.8 0 0 1 2.91,-2.85 2.73,2.73 0 0 1 2.85,2.82 z m -1.63,-1 a 1,1 0 0 0 -1.15,-1 1.17,1.17 0 0 0 -1.2,1 z"
     id="path52" />
  <path
     class="cls-2"
     d="m 298.62,18.1 v 2.26 c 0,0.29 0.14,0.43 0.44,0.43 h 0.92 v 1.65 h -0.92 c -1.46,0 -2.18,-0.7 -2.18,-2.08 V 18.1 h -1 v -1.28 h 1 v -1.91 h 1.74 v 1.91 h 1.36 v 1.28 z"
     id="path54" />
  <path
     class="cls-2"
     d="m 306.87,19.31 v 3 h -1.74 v -3 a 0.92,0.92 0 0 0 -1,-1 1,1 0 0 0 -1.07,1.06 v 2.94 h -1.73 v -8.16 h 1.73 v 3.5 a 1.7,1.7 0 0 1 1.68,-0.94 c 1.39,0 2.13,1.01 2.13,2.6 z"
     id="path56" />
  <path
     class="cls-2"
     d="m 308.42,14.91 a 0.8,0.8 0 0 1 0.89,-0.87 0.88,0.88 0 1 1 0,1.75 0.8,0.8 0 0 1 -0.89,-0.88 z m 0,1.91 h 1.73 v 5.49 h -1.73 z"
     id="path58" />
  <path
     class="cls-2"
     d="m 311.56,19.57 a 2.88,2.88 0 0 1 3,-2.86 2.67,2.67 0 0 1 2.46,1.43 l -1.47,0.75 a 1.22,1.22 0 0 0 -1.05,-0.57 1.27,1.27 0 0 0 0,2.53 1.24,1.24 0 0 0 1,-0.54 l 1.53,0.7 a 2.74,2.74 0 0 1 -2.5,1.43 2.86,2.86 0 0 1 -2.97,-2.87 z"
     id="path60" />
  <path
     class="cls-2"
     d="m 214.18,29.8 v 1.1 h -0.64 c -1.44,0 -1.53,1.6 -1.53,1.6 v 2.92 h -1.17 v -5.51 h 1.17 v 1.17 a 1.64,1.64 0 0 1 1.53,-1.28 z"
     id="path62" />
  <path
     class="cls-2"
     d="m 220.7,33.04 h -4.46 a 1.65,1.65 0 0 0 1.74,1.52 1.81,1.81 0 0 0 1.55,-0.79 l 0.86,0.53 a 2.84,2.84 0 0 1 -2.43,1.23 2.87,2.87 0 0 1 0,-5.73 2.7,2.7 0 0 1 2.78,2.84 z m -1.08,-0.73 a 1.54,1.54 0 0 0 -1.65,-1.51 1.64,1.64 0 0 0 -1.7,1.51 z"
     id="path64" />
  <path
     class="cls-2"
     d="m 222.08,32.65 a 2.82,2.82 0 0 1 2.92,-2.85 2.66,2.66 0 0 1 2.41,1.42 l -1,0.47 a 1.67,1.67 0 0 0 -1.46,-0.81 1.73,1.73 0 0 0 -1.74,1.77 1.76,1.76 0 0 0 1.74,1.81 1.7,1.7 0 0 0 1.44,-0.79 l 1,0.44 a 2.67,2.67 0 0 1 -2.44,1.42 2.83,2.83 0 0 1 -2.87,-2.88 z"
     id="path66" />
  <path
     class="cls-2"
     d="m 234.31,29.91 -2.83,6.65 c -0.45,1.13 -0.8,1.7 -2,1.7 h -0.86 v -1.11 h 0.82 a 0.8,0.8 0 0 0 0.8,-0.59 l 0.47,-1.1 -2.09,-5.55 h 1.25 l 1.54,4.07 1.72,-4.07 z"
     id="path68" />
  <path
     class="cls-2"
     d="m 235.3,32.65 a 2.82,2.82 0 0 1 2.91,-2.85 2.63,2.63 0 0 1 2.41,1.42 l -1,0.47 a 1.67,1.67 0 0 0 -1.46,-0.81 1.73,1.73 0 0 0 -1.74,1.77 1.76,1.76 0 0 0 1.74,1.81 1.7,1.7 0 0 0 1.44,-0.79 l 1,0.44 a 2.67,2.67 0 0 1 -2.44,1.42 2.83,2.83 0 0 1 -2.86,-2.88 z"
     id="path70" />
  <path
     class="cls-2"
     d="m 242.36,27.24 h 1.16 v 8.18 h -1.16 z"
     id="path72" />
  <path
     class="cls-2"
     d="m 251.18,29.91 v 5.51 h -1.15 v -1.06 a 2.14,2.14 0 0 1 -2,1.17 2.87,2.87 0 0 1 0,-5.73 2.14,2.14 0 0 1 2,1.18 v -1.07 z m -1.15,2.77 v 0 a 1.79,1.79 0 1 0 -1.78,1.82 1.78,1.78 0 0 0 1.78,-1.86 z"
     id="path74" />
  <path
     class="cls-2"
     d="m 258.86,29.91 v 5.24 a 2.8,2.8 0 0 1 -3,3 3,3 0 0 1 -2.82,-1.84 l 1,-0.33 a 1.92,1.92 0 0 0 1.81,1.09 1.7,1.7 0 0 0 1.81,-1.91 v -0.77 a 2,2 0 0 1 -1.91,1.14 2.87,2.87 0 0 1 0,-5.73 1.88,1.88 0 0 1 1.87,1.19 v -1.08 z m -1.17,2.76 a 1.77,1.77 0 0 0 -1.78,-1.78 1.79,1.79 0 1 0 1.78,1.78 z"
     id="path76" />
  <path
     class="cls-2"
     d="m 266.24,33.04 h -4.46 a 1.65,1.65 0 0 0 1.75,1.52 1.81,1.81 0 0 0 1.55,-0.79 l 0.86,0.53 a 2.85,2.85 0 0 1 -2.44,1.23 2.87,2.87 0 0 1 0,-5.73 2.7,2.7 0 0 1 2.78,2.84 z m -1.1,-0.74 a 1.53,1.53 0 0 0 -1.65,-1.51 1.65,1.65 0 0 0 -1.7,1.51 z"
     id="path78" />
  <path
     class="cls-2"
     d="m 276.62,27.24 v 8.18 h -1.15 v -1.11 a 2.1,2.1 0 0 1 -2,1.22 2.87,2.87 0 0 1 0,-5.73 2.08,2.08 0 0 1 1.95,1.14 v -3.7 z m -1.15,5.46 v 0 a 1.8,1.8 0 1 0 -1.85,1.75 1.75,1.75 0 0 0 1.83,-1.75 z"
     id="path80" />
  <path
     class="cls-2"
     d="m 284,33.04 h -4.46 a 1.65,1.65 0 0 0 1.74,1.52 1.81,1.81 0 0 0 1.55,-0.79 l 0.86,0.53 a 2.84,2.84 0 0 1 -2.43,1.23 2.87,2.87 0 0 1 0,-5.73 2.7,2.7 0 0 1 2.78,2.84 z m -1.1,-0.74 a 1.54,1.54 0 0 0 -1.65,-1.51 1.64,1.64 0 0 0 -1.7,1.51 z"
     id="path82" />
  <path
     class="cls-2"
     d="m 285.36,34.06 1,-0.29 a 1.35,1.35 0 0 0 1.31,0.84 c 0.65,0 1,-0.3 1,-0.7 0,-0.4 -0.3,-0.61 -0.86,-0.75 -0.71,-0.2 -2.32,-0.43 -2.32,-1.74 0,-1 1,-1.62 2.07,-1.62 a 2.15,2.15 0 0 1 2.11,1.24 l -1,0.38 a 1.12,1.12 0 0 0 -1.08,-0.69 c -0.48,0 -0.94,0.22 -0.94,0.64 0,0.6 0.92,0.73 1.55,0.91 1.48,0.42 1.64,1.12 1.64,1.56 0,1.12 -1,1.69 -2.16,1.69 a 2.36,2.36 0 0 1 -2.32,-1.47 z"
     id="path84" />
  <path
     class="cls-2"
     d="m 299.8,29.91 -2.33,5.51 h -1.08 l -2.33,-5.51 h 1.23 l 1.63,4.12 1.64,-4.12 z"
     id="path86" />
  <path
     class="cls-2"
     d="m 306.54,33.04 h -4.46 a 1.65,1.65 0 0 0 1.75,1.52 1.79,1.79 0 0 0 1.54,-0.79 l 0.87,0.53 a 2.85,2.85 0 0 1 -2.44,1.23 2.87,2.87 0 0 1 0,-5.73 2.7,2.7 0 0 1 2.78,2.84 z m -1.1,-0.74 a 1.54,1.54 0 0 0 -1.65,-1.51 1.64,1.64 0 0 0 -1.7,1.51 z m -2.63,-3.32 -0.7,-0.25 1.06,-1.42 h 1.24 l 1.06,1.47 -0.7,0.25 -1,-1 z"
     id="path88" />
  <path
     class="cls-2"
     d="m 309.8,30.79 v 3.05 a 0.52,0.52 0 0 0 0.59,0.59 h 0.92 v 1.1 h -0.92 a 1.52,1.52 0 0 1 -1.77,-1.69 v -3.05 h -1 v -0.88 h 1 V 28 h 1.16 v 1.91 h 1.51 v 0.88 z"
     id="path90" />
  <path
     class="cls-2"
     d="m 318.05,33.04 h -4.43 a 1.66,1.66 0 0 0 1.75,1.52 1.81,1.81 0 0 0 1.55,-0.79 l 0.86,0.53 a 2.84,2.84 0 0 1 -2.43,1.23 2.87,2.87 0 0 1 0,-5.73 2.7,2.7 0 0 1 2.78,2.84 z m -1.1,-0.74 a 1.54,1.54 0 0 0 -1.65,-1.51 1.64,1.64 0 0 0 -1.68,1.52 z"
     id="path92" />
  <path
     class="cls-2"
     d="m 328.71,32.31 v 3.07 h -1.09 v -3 a 1.31,1.31 0 0 0 -1.35,-1.46 1.38,1.38 0 0 0 -1.42,1.52 v 3 h -1.23 v -3 a 1.3,1.3 0 0 0 -1.33,-1.46 1.38,1.38 0 0 0 -1.41,1.52 v 3 h -1.15 v -5.59 h 1.15 v 1 a 1.79,1.79 0 0 1 1.78,-1.12 1.93,1.93 0 0 1 1.92,1.3 2,2 0 0 1 2,-1.3 2.26,2.26 0 0 1 2.13,2.52 z"
     id="path94" />
  <path
     class="cls-2"
     d="m 336.04,33.04 h -4.42 a 1.65,1.65 0 0 0 1.75,1.52 1.79,1.79 0 0 0 1.54,-0.79 l 0.87,0.53 a 2.85,2.85 0 0 1 -2.44,1.23 2.87,2.87 0 0 1 0,-5.73 2.7,2.7 0 0 1 2.78,2.84 z m -1.1,-0.74 a 1.53,1.53 0 0 0 -1.65,-1.51 1.64,1.64 0 0 0 -1.67,1.52 z"
     id="path96" />
  <path
     class="cls-2"
     d="m 342.87,32.31 v 3.08 h -1.15 v -3 a 1.29,1.29 0 0 0 -1.29,-1.46 1.45,1.45 0 0 0 -1.51,1.52 v 3 h -1.17 v -5.54 h 1.17 v 1 a 1.83,1.83 0 0 1 1.83,-1.09 c 1.29,-0.02 2.12,0.93 2.12,2.49 z"
     id="path98" />
  <path
     class="cls-2"
     d="m 346.4,30.79 v 3.05 a 0.52,0.52 0 0 0 0.59,0.59 h 0.92 v 1.1 h -0.92 a 1.51,1.51 0 0 1 -1.74,-1.69 v -3.05 h -1 v -0.88 h 1 V 28 h 1.15 v 1.91 h 1.51 v 0.88 z"
     id="path100" />
  <path
     class="cls-2"
     d="m 349.16,34.06 1,-0.29 a 1.33,1.33 0 0 0 1.3,0.84 c 0.65,0 1,-0.3 1,-0.7 0,-0.4 -0.29,-0.61 -0.86,-0.75 -0.57,-0.14 -2.32,-0.43 -2.32,-1.74 0,-1 1,-1.62 2.07,-1.62 a 2.15,2.15 0 0 1 2.11,1.24 l -1,0.38 a 1.11,1.11 0 0 0 -1.08,-0.69 c -0.48,0 -0.94,0.22 -0.94,0.64 0,0.6 0.92,0.73 1.55,0.91 1.48,0.42 1.64,1.12 1.64,1.56 0,1.12 -1,1.69 -2.16,1.69 a 2.36,2.36 0 0 1 -2.31,-1.47 z"
     id="path102" />
  <path
     class="cls-2"
     d="m 364.4,32.66 a 2.8,2.8 0 0 1 -2.78,2.87 2.08,2.08 0 0 1 -1.92,-1.11 v 3.73 h -1.16 v -8.24 h 1.16 v 1.08 a 2.1,2.1 0 0 1 2,-1.19 2.78,2.78 0 0 1 2.7,2.86 z m -1.17,0 a 1.78,1.78 0 0 0 -3.56,0 v 0 a 1.8,1.8 0 0 0 1.79,1.76 1.76,1.76 0 0 0 1.77,-1.76 z"
     id="path104" />
  <path
     class="cls-2"
     d="m 369.51,29.8 v 1.1 h -0.63 c -1.44,0 -1.54,1.6 -1.54,1.6 v 2.92 h -1.17 v -5.51 h 1.17 v 1.17 a 1.66,1.66 0 0 1 1.54,-1.28 z"
     id="path106" />
  <path
     class="cls-2"
     d="m 370.42,32.66 a 2.91,2.91 0 1 1 2.91,2.87 2.81,2.81 0 0 1 -2.91,-2.87 z m 4.7,0 a 1.8,1.8 0 1 0 -1.8,1.8 1.76,1.76 0 0 0 1.8,-1.8 z"
     id="path108" />
  <path
     class="cls-2"
     d="m 379.48,28.71 v 1.2 h 1.33 v 0.88 h -1.33 v 4.63 h -1.1 v -4.63 h -1 v -0.88 h 1 v -1.2 a 1.4,1.4 0 0 1 1.58,-1.58 h 1.18 v 1.1 h -1.18 a 0.42,0.42 0 0 0 -0.48,0.48 z"
     id="path110" />
  <path
     class="cls-2"
     d="m 387.54,33.04 h -4.46 a 1.65,1.65 0 0 0 1.75,1.52 1.79,1.79 0 0 0 1.54,-0.79 l 0.87,0.53 a 2.85,2.85 0 0 1 -2.44,1.23 2.87,2.87 0 0 1 0,-5.73 2.7,2.7 0 0 1 2.78,2.84 z m -1.1,-0.74 a 1.54,1.54 0 0 0 -1.65,-1.51 1.64,1.64 0 0 0 -1.7,1.51 z"
     id="path112" />
  <path
     class="cls-2"
     d="m 388.9,34.06 1,-0.29 a 1.33,1.33 0 0 0 1.31,0.84 c 0.64,0 1,-0.3 1,-0.7 0,-0.4 -0.29,-0.61 -0.86,-0.75 -0.57,-0.14 -2.31,-0.43 -2.31,-1.74 0,-1 1,-1.62 2.06,-1.62 a 2.17,2.17 0 0 1 2.12,1.24 l -1,0.38 a 1.11,1.11 0 0 0 -1.08,-0.69 c -0.48,0 -0.94,0.22 -0.94,0.64 0,0.6 0.92,0.73 1.55,0.91 1.49,0.42 1.64,1.12 1.64,1.56 0,1.12 -1,1.69 -2.16,1.69 a 2.37,2.37 0 0 1 -2.33,-1.47 z"
     id="path114" />
  <path
     class="cls-2"
     d="m 394.84,34.06 1,-0.29 a 1.33,1.33 0 0 0 1.31,0.84 c 0.64,0 1,-0.3 1,-0.7 0,-0.4 -0.29,-0.61 -0.86,-0.75 -0.57,-0.14 -2.31,-0.43 -2.31,-1.74 0,-1 1,-1.62 2.06,-1.62 a 2.16,2.16 0 0 1 2.12,1.24 l -1,0.38 a 1.11,1.11 0 0 0 -1.08,-0.69 c -0.48,0 -0.93,0.22 -0.93,0.64 0,0.6 0.91,0.73 1.55,0.91 1.48,0.42 1.63,1.12 1.63,1.56 0,1.12 -1,1.69 -2.16,1.69 a 2.35,2.35 0 0 1 -2.33,-1.47 z"
     id="path116" />
  <path
     class="cls-2"
     d="m 400.91,28.12 a 0.61,0.61 0 0 1 0.69,-0.66 0.67,0.67 0 1 1 0,1.33 0.61,0.61 0 0 1 -0.69,-0.67 z m 0.11,1.79 h 1.16 v 5.51 h -1.16 z"
     id="path118" />
  <path
     class="cls-2"
     d="m 403.85,32.66 a 2.91,2.91 0 1 1 2.92,2.87 2.82,2.82 0 0 1 -2.92,-2.87 z m 4.71,0 a 1.8,1.8 0 1 0 -1.8,1.8 1.76,1.76 0 0 0 1.8,-1.8 z"
     id="path120" />
  <path
     class="cls-2"
     d="m 416.55,32.31 v 3.08 h -1.14 v -3 a 1.29,1.29 0 0 0 -1.3,-1.46 1.45,1.45 0 0 0 -1.49,1.51 v 3 h -1.17 v -5.53 h 1.17 v 1 a 1.83,1.83 0 0 1 1.83,-1.09 c 1.27,-0.02 2.1,0.93 2.1,2.49 z"
     id="path122" />
  <path
     class="cls-2"
     d="m 423.7,32.31 v 3.08 h -1.15 v -3 a 1.29,1.29 0 0 0 -1.3,-1.46 1.44,1.44 0 0 0 -1.5,1.52 v 3 h -1.13 v -5.54 h 1.17 v 1 a 1.83,1.83 0 0 1 1.83,-1.11 c 1.25,0 2.08,0.95 2.08,2.51 z"
     id="path124" />
  <path
     class="cls-2"
     d="m 431.01,33.04 h -4.46 a 1.65,1.65 0 0 0 1.75,1.52 1.82,1.82 0 0 0 1.55,-0.79 l 0.86,0.53 a 2.85,2.85 0 0 1 -2.44,1.23 2.87,2.87 0 0 1 0,-5.73 2.7,2.7 0 0 1 2.78,2.84 z m -1.1,-0.74 a 1.53,1.53 0 0 0 -1.65,-1.51 1.65,1.65 0 0 0 -1.7,1.51 z"
     id="path126" />
  <path
     class="cls-2"
     d="m 432.72,27.24 h 1.17 v 8.18 h -1.17 z"
     id="path128" />
  <path
     class="cls-2"
     d="m 435.62,34.06 1,-0.29 a 1.33,1.33 0 0 0 1.31,0.84 c 0.64,0 1,-0.3 1,-0.7 0,-0.4 -0.29,-0.61 -0.86,-0.75 -0.57,-0.14 -2.31,-0.43 -2.31,-1.74 0,-1 1,-1.62 2.06,-1.62 a 2.16,2.16 0 0 1 2.12,1.24 l -1,0.38 a 1.11,1.11 0 0 0 -1.08,-0.69 c -0.48,0 -0.93,0.22 -0.93,0.64 0,0.6 0.91,0.73 1.55,0.91 1.48,0.42 1.63,1.12 1.63,1.56 0,1.12 -1,1.69 -2.16,1.69 a 2.35,2.35 0 0 1 -2.33,-1.47 z"
     id="path130" />
</svg>
