<?xml version="1.0" encoding="UTF-8" standalone="no"?>
<svg
   xmlns:dc="http://purl.org/dc/elements/1.1/"
   xmlns:cc="http://creativecommons.org/ns#"
   xmlns:rdf="http://www.w3.org/1999/02/22-rdf-syntax-ns#"
   xmlns:svg="http://www.w3.org/2000/svg"
   xmlns="http://www.w3.org/2000/svg"
   xmlns:sodipodi="http://sodipodi.sourceforge.net/DTD/sodipodi-0.dtd"
   xmlns:inkscape="http://www.inkscape.org/namespaces/inkscape"
   version="1.1"
   id="Calque_1"
   x="0px"
   y="0px"
   viewBox="0 0 484.99999 47.199999"
   xml:space="preserve"
   sodipodi:docname="masquethic-logo-full.svg"
   width="485"
   height="47.200001"
   inkscape:version="1.0.2 (e86c870879, 2021-01-15)"><metadata
   id="metadata71"><rdf:RDF><cc:Work
       rdf:about=""><dc:format>image/svg+xml</dc:format><dc:type
         rdf:resource="http://purl.org/dc/dcmitype/StillImage" /><dc:title></dc:title></cc:Work></rdf:RDF></metadata><defs
   id="defs69" /><sodipodi:namedview
   pagecolor="#ffffff"
   bordercolor="#666666"
   borderopacity="1"
   objecttolerance="10"
   gridtolerance="10"
   guidetolerance="10"
   inkscape:pageopacity="0"
   inkscape:pageshadow="2"
   inkscape:window-width="1920"
   inkscape:window-height="1051"
   id="namedview67"
   showgrid="false"
   fit-margin-top="0"
   fit-margin-left="0"
   fit-margin-right="0"
   fit-margin-bottom="0"
   inkscape:zoom="2.316164"
   inkscape:cx="246.80001"
   inkscape:cy="22.150002"
   inkscape:window-x="0"
   inkscape:window-y="0"
   inkscape:window-maximized="1"
   inkscape:current-layer="Calque_1" />
<style
   type="text/css"
   id="style2">
	.st0{fill:#003F6E;}
	.st1{fill:#5656C8;}
	.st2{fill:none;}
	.st3{font-family:'RozanovaGEO-Bold';}
	.st4{font-size:11px;}
</style>
<path
   class="st0"
   d="m 272.7,14.6 h 1.8 v 7.9 h -1.8 z"
   id="path4" />
<path
   class="st0"
   d="m 282.1,19.5 v 2.9 h -1.7 v -2.9 c 0,-0.5 -0.4,-1 -0.9,-1 0,0 -0.1,0 -0.1,0 -0.6,0 -1,0.4 -1.1,0.9 0,0 0,0 0,0.1 v 2.9 h -1.7 V 17 h 1.7 v 0.9 c 0.3,-0.7 1,-1.1 1.7,-1 1.3,-0.1 2.1,0.9 2.1,2.6 z"
   id="path6" />
<path
   class="st0"
   d="m 289.4,19.5 v 2.9 h -1.7 v -2.9 c 0,-0.5 -0.4,-1 -0.9,-1 0,0 -0.1,0 -0.1,0 -0.6,0 -1,0.4 -1.1,0.9 0,0 0,0 0,0.1 v 2.9 h -1.7 V 17 h 1.7 v 0.9 c 0.3,-0.7 1,-1.1 1.7,-1 1.3,-0.1 2.1,0.9 2.1,2.6 z"
   id="path8" />
<path
   class="st0"
   d="m 290.9,19.7 c 0,-1.6 1.3,-3 2.9,-3 1.6,0 3,1.3 3,2.9 0,1.6 -1.3,3 -2.9,3 0,0 0,0 -0.1,0 -1.6,0 -2.9,-1.2 -2.9,-2.7 0,-0.1 0,-0.2 0,-0.2 z m 4.2,0 c 0,-0.7 -0.6,-1.3 -1.3,-1.3 -0.7,0 -1.3,0.6 -1.3,1.3 0,0.7 0.6,1.3 1.3,1.3 0.7,0 1.3,-0.6 1.3,-1.3 0,0 0,0 0,0 z"
   id="path10" />
<path
   class="st0"
   d="m 303.6,17 -2.3,5.5 h -1.6 L 297.4,17 h 1.9 l 1.2,3.3 1.2,-3.3 z"
   id="path12" />
<path
   class="st0"
   d="m 310.4,17 v 5.5 h -1.7 v -0.7 c -0.4,0.5 -1,0.9 -1.6,0.8 -1.6,-0.1 -2.8,-1.5 -2.7,-3 0.1,-1.5 1.2,-2.6 2.7,-2.7 0.6,0 1.3,0.3 1.6,0.8 V 17 Z m -1.8,2.8 c 0,-0.7 -0.5,-1.3 -1.2,-1.3 -0.7,0 -1.3,0.5 -1.3,1.2 0,0.7 0.5,1.3 1.2,1.3 0,0 0,0 0.1,0 0.7,0 1.2,-0.6 1.2,-1.2 z"
   id="path14" />
<path
   class="st0"
   d="m 314.4,18.2 v 2.3 c 0,0.2 0.1,0.4 0.3,0.4 0,0 0.1,0 0.1,0 h 0.9 v 1.6 h -0.9 c -1.5,0 -2.2,-0.7 -2.2,-2.1 v -2.3 h -1 V 17 h 1 v -2 h 1.7 v 2 h 1.4 v 1.3 z"
   id="path16" />
<path
   class="st0"
   d="m 316.9,15 c 0,-0.5 0.4,-0.9 0.9,-0.9 0.5,0 0.9,0.4 0.9,0.9 0,0.5 -0.4,0.9 -0.9,0.9 0,0 0,0 0,0 -0.4,0.1 -0.8,-0.3 -0.9,-0.7 0,-0.1 0,-0.1 0,-0.2 z m 0,1.9 h 1.8 v 5.5 H 317 Z"
   id="path18" />
<path
   class="st0"
   d="m 320,19.7 c 0,-1.6 1.3,-3 2.9,-3 1.6,0 3,1.3 3,2.9 0,1.6 -1.3,3 -2.9,3 0,0 0,0 -0.1,0 -1.6,0 -2.9,-1.2 -2.9,-2.7 0,-0.1 0,-0.2 0,-0.2 z m 4.2,0 c 0,-0.7 -0.6,-1.3 -1.3,-1.3 -0.7,0 -1.3,0.6 -1.3,1.3 0,0.7 0.6,1.3 1.3,1.3 0.7,0 1.3,-0.6 1.3,-1.3 0,0 0,0 0,0 z"
   id="path20" />
<path
   class="st0"
   d="m 333,19.5 v 2.9 h -1.7 v -2.9 c 0,-0.5 -0.4,-1 -0.9,-1 0,0 -0.1,0 -0.1,0 -0.6,0 -1,0.4 -1.1,0.9 0,0 0,0 0,0.1 v 2.9 h -1.7 V 17 h 1.7 v 0.9 c 0.3,-0.7 1,-1.1 1.7,-1 1.3,-0.1 2.1,0.9 2.1,2.6 z"
   id="path22" />
<path
   class="st0"
   d="m 340.1,18.2 v 2.3 c 0,0.2 0.1,0.4 0.3,0.4 0,0 0.1,0 0.1,0 h 0.9 v 1.6 h -0.9 c -1.5,0 -2.2,-0.7 -2.2,-2.1 v -2.3 h -1 V 17 h 1 v -2 h 1.7 v 2 h 1.4 v 1.3 z"
   id="path24" />
<path
   class="st0"
   d="m 346.9,16.8 v 1.7 h -0.7 c -0.8,-0.1 -1.6,0.5 -1.7,1.3 0,0.1 0,0.1 0,0.2 v 2.5 h -1.7 V 17 h 1.7 v 1.3 c 0,0 0.4,-1.5 1.7,-1.5 z"
   id="path26" />
<path
   class="st0"
   d="m 347.9,15 c 0,-0.4 0.3,-0.8 0.7,-0.9 0.1,0 0.1,0 0.2,0 0.5,-0.1 0.9,0.3 1,0.8 0.1,0.5 -0.3,0.9 -0.8,1 -0.1,0 -0.1,0 -0.2,0 -0.4,0.1 -0.8,-0.3 -0.9,-0.7 0,-0.1 0,-0.1 0,-0.2 z m 0,1.9 h 1.8 v 5.5 H 348 Z"
   id="path28" />
<path
   class="st0"
   d="m 356.8,20.2 h -4 c 0.1,0.6 0.7,1.1 1.3,1 0.5,0 0.9,-0.2 1.2,-0.5 l 1.2,0.9 c -0.6,0.7 -1.5,1.1 -2.4,1.1 -1.6,0.1 -2.9,-1.1 -3,-2.7 0,-0.1 0,-0.2 0,-0.2 0,-1.5 1.2,-2.8 2.7,-2.9 0.1,0 0.1,0 0.2,0 1.5,-0.1 2.8,1.1 2.8,2.6 0,0.1 0,0.1 0,0.2 z m -1.7,-1 c 0,-0.6 -0.4,-1 -1,-1 -0.1,0 -0.1,0 -0.2,0 -0.6,0 -1.1,0.4 -1.2,1 z"
   id="path30" />
<path
   class="st0"
   d="m 360.4,18.2 v 2.3 c 0,0.2 0.1,0.4 0.3,0.4 0,0 0.1,0 0.1,0 h 0.9 v 1.6 h -0.9 c -1.5,0 -2.2,-0.7 -2.2,-2.1 v -2.3 h -1 V 17 h 1 v -2 h 1.7 v 2 h 1.4 v 1.3 z"
   id="path32" />
<path
   class="st0"
   d="m 368.7,19.5 v 3 H 367 v -3 c 0,-0.5 -0.4,-0.9 -0.9,-0.9 0,0 -0.1,0 -0.1,0 -0.6,0 -1,0.4 -1.1,0.9 0,0 0,0 0,0.1 v 2.9 h -1.7 v -8.1 h 1.7 v 3.5 c 0.3,-0.6 1,-1 1.7,-0.9 1.3,-0.2 2.1,0.9 2.1,2.5 z"
   id="path34" />
<path
   class="st0"
   d="m 370.2,15 c 0,-0.5 0.4,-0.9 0.9,-0.9 0.5,0 0.9,0.4 0.9,0.9 0,0.5 -0.4,0.9 -0.9,0.9 0,0 0,0 0,0 -0.4,0.1 -0.8,-0.3 -0.9,-0.7 0,-0.1 0,-0.1 0,-0.2 z m 0.1,1.9 h 1.7 v 5.5 h -1.7 z"
   id="path36" />
<path
   class="st0"
   d="m 373.4,19.7 c 0,-1.6 1.3,-2.9 2.9,-2.9 0,0 0.1,0 0.1,0 1,0 2,0.5 2.5,1.4 l -1.5,0.8 c -0.2,-0.4 -0.6,-0.6 -1,-0.6 -0.7,-0.1 -1.3,0.5 -1.4,1.2 -0.1,0.7 0.5,1.3 1.2,1.4 0.1,0 0.2,0 0.2,0 0.4,0 0.8,-0.2 1,-0.5 l 1.5,0.7 c -0.5,0.9 -1.5,1.5 -2.5,1.4 -1.6,0.1 -2.9,-1.2 -3,-2.8 0,0 0,-0.1 0,-0.1 z"
   id="path38" />
<path
   class="st1"
   d="m 50.7,21.9 h 3.8 v -1 c 0,-1.6 -0.7,-2.7 -3.7,-2.7 -2.5,0.1 -5,0.5 -7.3,1.2 l -1.2,-6.9 c 3.2,-1 6.6,-1.6 10,-1.6 7.6,0 10.9,2.5 10.9,9.9 v 6.4 c 0,1.3 0.4,1.9 1.3,1.9 0.5,0 1.1,-0.1 1.6,-0.2 v 6.8 c -1.5,0.6 -3,0.8 -4.6,0.8 -2.2,0.2 -4.2,-0.8 -5.4,-2.6 -2,1.6 -4.5,2.5 -7.1,2.6 -4.6,0 -7.5,-2.2 -7.5,-7.4 -0.3,-5.3 4.5,-7.2 9.2,-7.2 z m 3.7,8 v -3.5 h -2.6 c -1.1,-0.1 -2.1,0.7 -2.2,1.8 0,0.2 0,0.3 0,0.5 -0.1,1.1 0.8,2 1.9,2.1 0.1,0 0.2,0 0.2,0 1,-0.1 1.9,-0.4 2.7,-0.9 z"
   id="path40" />
<path
   class="st1"
   d="m 77.2,36.5 c -3,0.1 -6.1,-0.4 -9,-1.3 l 1,-6.1 c 2.1,0.7 4.3,1 6.6,1.1 1.9,0 3,-0.2 3,-1.4 0,-1.2 -1.3,-1.5 -5,-2.5 -3.7,-1 -5.6,-2.5 -5.6,-7.5 0,-4.8 3.4,-7.9 10,-7.9 2.8,0 5.6,0.3 8.3,0.9 l -0.8,6.3 c -2,-0.5 -4,-0.7 -6.1,-0.8 -1.8,0 -2.8,0.4 -2.8,1.6 0,1.2 1.3,1.6 4.4,2.3 4.5,1.1 6.3,3 6.3,7.7 -0.1,5.3 -3.8,7.6 -10.3,7.6 z"
   id="path42" />
<path
   class="st1"
   d="m 90.9,21.8 c 0,-7 4.3,-10.9 12.1,-10.9 4,-0.1 8,0.4 11.8,1.5 v 34.8 h -9 V 34.6 c -1.9,1.3 -4.2,2 -6.5,2 -4.8,0 -8.5,-3.2 -8.5,-9.1 z m 14.8,6.3 v -9.5 c -0.8,-0.2 -1.7,-0.3 -2.6,-0.3 -1.6,-0.1 -2.9,1.1 -3,2.7 0,0.2 0,0.3 0,0.5 v 4.8 c 0,1.8 0.8,3 2.6,3 1.1,-0.2 2.1,-0.5 3,-1.2 z"
   id="path44" />
<path
   class="st1"
   d="M 135.4,36 135,33.7 c -2.4,1.7 -5.2,2.7 -8.2,2.8 -4.6,0 -7.2,-2.6 -7.2,-7.3 V 11.4 h 9.2 v 14.9 c -0.2,1.1 0.6,2 1.6,2.2 0.2,0 0.4,0 0.5,0 1.2,-0.1 2.3,-0.5 3.2,-1.2 v -16 h 9.2 V 36 Z"
   id="path46" />
<path
   class="st0"
   d="m 147.4,21.8 c 0,-7 4.2,-10.9 11.5,-10.9 7,0 11.1,3.9 11.1,11 0,2 -0.2,3.4 -0.2,3.9 h -13.6 v 0.7 c 0,2.1 1.6,3.1 5.2,3.1 2.5,0 5,-0.3 7.4,-0.7 l 0.7,6.6 c -3.2,0.8 -6.5,1.2 -9.9,1.1 -7.4,0 -12.3,-3.6 -12.3,-10.5 z m 8.8,-0.3 h 5.4 v -0.7 c 0,-2.1 -0.7,-3.4 -2.7,-3.4 -1.8,0 -2.7,1.1 -2.7,3.1 z"
   id="path48" />
<path
   class="st0"
   d="m 171.8,11.4 h 3 l 0.4,-6.9 h 8.3 v 6.9 h 4.5 v 6.9 h -4.3 V 27 c 0,1.7 0.7,2.3 2,2.3 0.9,0 1.8,-0.1 2.7,-0.2 l 0.4,6.7 c -1.9,0.5 -3.9,0.7 -5.9,0.7 -4.5,0 -7.2,-1.6 -8,-5.2 -0.8,-3.6 -0.4,-8.6 -0.4,-13 h -2.8 z"
   id="path50" />
<path
   class="st0"
   d="m 201.4,4.2 v 9.2 c 2.2,-1.5 4.9,-2.4 7.6,-2.5 4.7,0 7.3,2.6 7.3,7.3 V 36 h -9.2 V 21.1 c 0.1,-1.1 -0.6,-2.1 -1.7,-2.3 -0.2,0 -0.3,0 -0.5,0 -1.2,0.1 -2.3,0.5 -3.3,1.2 v 16 h -9.1 V 4.2 Z"
   id="path52" />
<path
   class="st0"
   d="m 225.6,0 c 3.1,0 4.8,1.4 4.8,4.5 0,3.1 -1.7,4.5 -4.8,4.5 -3.1,0 -4.8,-1.4 -4.8,-4.5 0,-3.1 1.7,-4.5 4.8,-4.5 z m 4.6,11.4 V 36 h -9.1 V 11.4 Z"
   id="path54" />
<path
   class="st0"
   d="m 243.4,25.2 c 0,2.6 1.6,4.1 4.3,4.1 1.5,0 3,-0.2 4.5,-0.5 l 0.5,7 c -2.3,0.5 -4.6,0.7 -6.9,0.7 -6.7,0 -10.8,-3.1 -11.4,-9.2 -0.1,-0.7 -0.1,-1.5 -0.1,-2.3 v -2.6 c 0,-0.8 0,-1.6 0.1,-2.3 0.6,-6 4.7,-9.2 11.3,-9.2 2.4,0 4.7,0.3 7,0.8 l -0.9,7 c -1.4,-0.4 -2.9,-0.6 -4.4,-0.7 -2.1,-0.2 -4,1.4 -4.2,3.6 0,0.2 0,0.4 0,0.6 v 3 z"
   id="path56" />
<path
   class="st0"
   d="m 265.3,28.9 v 7.6 h -7.9 v -7.6 z"
   id="path58" />
<path
   class="st1"
   d="m 7.8,10.8 0.4,2.4 c 2.3,-1.7 5.1,-2.7 8,-2.8 3,0 5,1.1 6.2,3 2.4,-1.8 5.3,-2.9 8.3,-3.1 4.6,0 7.2,2.6 7.2,7.3 V 35.3 H 28.8 V 20.5 c 0,-1.4 -0.7,-2.3 -2.1,-2.3 -1.1,0.1 -2.2,0.5 -3.1,1.2 v 16 h -9.2 v -15 c 0,-1.4 -0.7,-2.3 -2.1,-2.3 -1.2,0.1 -2.3,0.5 -3.2,1.2 V 35.2 H 0 V 10.8 Z"
   id="path60" />
<rect
   x="271.70001"
   y="28.700001"
   class="st2"
   width="213.3"
   height="13.1"
   id="rect62" />
<text
   class="st0 st3 st4"
   id="text64"
   x="271.7005"
   y="36.945702">recyclage des masques chirurgicaux</text>
</svg>
