<?xml version="1.0" encoding="UTF-8" standalone="no"?>
<!-- Generator: Adobe Illustrator 25.4.1, SVG Export Plug-In . SVG Version: 6.00 Build 0)  -->

<svg
   version="1.1"
   id="Capa_1"
   x="0px"
   y="0px"
   viewBox="0 0 53.004524 46.702549"
   xml:space="preserve"
   sodipodi:docname="user.svg"
   width="53.004524"
   height="46.702549"
   inkscape:version="1.1 (c4e8f9e, 2021-05-24)"
   xmlns:inkscape="http://www.inkscape.org/namespaces/inkscape"
   xmlns:sodipodi="http://sodipodi.sourceforge.net/DTD/sodipodi-0.dtd"
   xmlns="http://www.w3.org/2000/svg"
   xmlns:svg="http://www.w3.org/2000/svg"><defs
   id="defs20" /><sodipodi:namedview
   id="namedview18"
   pagecolor="#ffffff"
   bordercolor="#666666"
   borderopacity="1.0"
   inkscape:pageshadow="2"
   inkscape:pageopacity="0.0"
   inkscape:pagecheckerboard="0"
   showgrid="false"
   inkscape:zoom="10.358491"
   inkscape:cx="26.45173"
   inkscape:cy="26.5"
   inkscape:window-width="1323"
   inkscape:window-height="771"
   inkscape:window-x="0"
   inkscape:window-y="25"
   inkscape:window-maximized="0"
   inkscape:current-layer="Capa_1" />
<style
   type="text/css"
   id="style9">
	.st0{fill:#FFFFFF;}
	.st1{fill:#003F6E;}
</style>
<path
   class="st0"
   d="m 18.601978,41.602548 -7.9,4.3 c -0.5,0.3 -0.9000004,0.6 -1.3000004,0.9 4.6000004,3.9 10.6000004,6.2 17.1000004,6.2 6.5,0 12.4,-2.3 17,-6.1 -0.4,-0.4 -0.9,-0.7 -1.4,-0.9 l -8.5,-4.2 c -1.1,-0.5 -1.8,-1.7 -1.8,-2.9 v -3.3 c 0.2,-0.3 0.5,-0.6 0.8,-1 1.2,-1.6 2,-3.4 2.6,-5.3 1.1,-0.3 1.9,-1.3 1.9,-2.5 v -3.5 c 0,-0.8 -0.3,-1.5 -0.9,-2 v -5.3 c 0,0 1.1,-8.0000002 -9.8,-8.0000002 -10.9,0 -9.8,8.0000002 -9.8,8.0000002 v 5.1 c -0.5,0.5 -0.9,1.2 -0.9,2 v 3.5 c 0,0.9 0.5,1.8 1.2,2.2 0.9,3.9 3.2,6.6 3.2,6.6 v 3.2 c 0.2,1.3 -0.5,2.4 -1.5,3 z"
   id="path11" />
<g
   id="g15"
   transform="translate(0.00197757,0.00254775)">
	<path
   class="st1"
   d="M 27,0 C 12.3,-0.2 0.3,11.4 0,26 c -0.1,8.3 3.6,15.8 9.4,20.7 0.4,-0.3 0.8,-0.6 1.3,-0.9 l 7.9,-4.3 c 1,-0.6 1.7,-1.7 1.7,-2.8 v -3.2 c 0,0 -2.3,-2.8 -3.2,-6.6 -0.7,-0.5 -1.2,-1.3 -1.2,-2.2 v -3.5 c 0,-0.8 0.3,-1.5 0.9,-2 V 16 c 0,0 -1.1,-8 9.8,-8 10.9,0 9.8,8 9.8,8 v 5.1 c 0.5,0.5 0.9,1.2 0.9,2 v 3.5 c 0,1.2 -0.8,2.2 -1.9,2.5 -0.6,1.9 -1.5,3.7 -2.6,5.3 -0.3,0.4 -0.6,0.8 -0.8,1 v 3.3 c 0,1.2 0.7,2.3 1.8,2.9 l 8.5,4.2 c 0.5,0.3 1,0.6 1.4,0.9 C 49.2,42.1 52.9,35 53,27 53.2,12.3 41.6,0.3 27,0 Z"
   id="path13" />
</g>
</svg>
