<?xml version="1.0" encoding="UTF-8" standalone="no"?>
<svg
   xmlns:dc="http://purl.org/dc/elements/1.1/"
   xmlns:cc="http://creativecommons.org/ns#"
   xmlns:rdf="http://www.w3.org/1999/02/22-rdf-syntax-ns#"
   xmlns:svg="http://www.w3.org/2000/svg"
   xmlns="http://www.w3.org/2000/svg"
   xmlns:sodipodi="http://sodipodi.sourceforge.net/DTD/sodipodi-0.dtd"
   xmlns:inkscape="http://www.inkscape.org/namespaces/inkscape"
   fill="#000000"
   version="1.1"
   id="svg10"
   sodipodi:docname="lockmien.svg"
   viewBox="0 0 17 22"
   inkscape:version="1.0.2 (e86c870879, 2021-01-15)">
  <metadata
     id="metadata16">
    <rdf:RDF>
      <cc:Work
         rdf:about="">
        <dc:format>image/svg+xml</dc:format>
        <dc:type
           rdf:resource="http://purl.org/dc/dcmitype/StillImage" />
        <dc:title></dc:title>
      </cc:Work>
    </rdf:RDF>
  </metadata>
  <defs
     id="defs14" />
  <sodipodi:namedview
     pagecolor="#ffffff"
     bordercolor="#666666"
     borderopacity="1"
     objecttolerance="10"
     gridtolerance="10"
     guidetolerance="10"
     inkscape:pageopacity="0"
     inkscape:pageshadow="2"
     id="namedview12"
     showgrid="false"
     inkscape:zoom="29.791667"
     inkscape:cx="-1.4563447"
     inkscape:cy="13.467322"
     inkscape:window-x="0"
     inkscape:window-y="0"
     inkscape:window-maximized="1"
     inkscape:current-layer="svg10"
     inkscape:document-rotation="0"
     fit-margin-top="0"
     fit-margin-left="0"
     fit-margin-right="0"
     fit-margin-bottom="0"
     inkscape:snap-nodes="true"
     inkscape:window-width="1920"
     inkscape:window-height="1051" />
  <path
     id="gris"
     style="display:inline;fill:none;fill-rule:evenodd;stroke:#bbbbbb;stroke-width:1px;stroke-linecap:butt;stroke-linejoin:miter;stroke-opacity:0.733333"
     d="M 3.4999998,7.5 H 13.5 m 1,0 h -1 v -2 c 0,-2.76 -2.24,-5 -5.0000002,-5 -2.76,0 -5,2.24 -5,5 v 2 h -1 c -1.1,0 -2,0.9 -2,2 v 10 c 0,1.1 0.9,2 2,2 H 14.5 c 1.1,0 2,-0.9 2,-2 v -10 c 0,-1.1 -0.9,-2 -2,-2 z" />
  <path
     id="couleur"
     style="display:inline;fill:none;fill-rule:evenodd;stroke:#ed6a5a;stroke-width:1px;stroke-linecap:butt;stroke-linejoin:miter;stroke-opacity:1"
     d="m 3.5,7.5 h 10 m 1,0 h -1 v -2 c 0,-2.76 -2.24,-5 -5.0000002,-5 C 5.7399998,0.5 3.5,2.74 3.5,5.5 v 2 h -1 c -1.1,0 -2,0.9 -2,2 v 10 c 0,1.1 0.9,2 2,2 h 12 c 1.1,0 2,-0.9 2,-2 v -10 c 0,-1.1 -0.9,-2 -2,-2 z"
     fill-opacity="0" />
</svg>
