<?xml version="1.0" encoding="UTF-8" standalone="no"?>
<!-- Generator: Adobe Illustrator 25.4.1, SVG Export Plug-In . SVG Version: 6.00 Build 0)  -->

<svg
   version="1.1"
   id="light"
   x="0px"
   y="0px"
   viewBox="0 0 512.0238 512"
   xml:space="preserve"
   sodipodi:docname="renew.svg"
   width="512.0238"
   height="512"
   inkscape:version="1.1 (c4e8f9e, 2021-05-24)"
   xmlns:inkscape="http://www.inkscape.org/namespaces/inkscape"
   xmlns:sodipodi="http://sodipodi.sourceforge.net/DTD/sodipodi-0.dtd"
   xmlns="http://www.w3.org/2000/svg"
   xmlns:svg="http://www.w3.org/2000/svg"><defs
   id="defs24" /><sodipodi:namedview
   id="namedview22"
   pagecolor="#ffffff"
   bordercolor="#666666"
   borderopacity="1.0"
   inkscape:pageshadow="2"
   inkscape:pageopacity="0.0"
   inkscape:pagecheckerboard="0"
   showgrid="false"
   inkscape:zoom="1.0722656"
   inkscape:cx="255.5337"
   inkscape:cy="256"
   inkscape:window-width="1323"
   inkscape:window-height="771"
   inkscape:window-x="0"
   inkscape:window-y="25"
   inkscape:window-maximized="0"
   inkscape:current-layer="light" />
<style
   type="text/css"
   id="style9">
	.st0{fill:#003F6E;}
	.st1{fill:#B1DC4C;}
</style>
<path
   class="st0"
   d="m 501.31189,192 h -106.6 c -5.9,0 -10.7,-4.8 -10.7,-10.7 0,-5.9 4.8,-10.7 10.7,-10.7 h 96 v -96 c 0,-5.9 4.8,-10.7 10.7,-10.7 5.9,0 10.6,4.9 10.6,10.8 v 106.7 c 0,5.8 -4.8,10.6 -10.7,10.6 z"
   id="path11" />
<path
   class="st0"
   d="M 10.711894,448 C 4.8118941,448 0.01189411,443.2 0.01189411,437.3 V 330.7 c 0,-5.9 4.79999999,-10.7 10.69999989,-10.7 H 117.41189 c 5.9,0 10.7,4.8 10.7,10.7 0,5.9 -4.8,10.7 -10.7,10.7 H 21.411894 v 96 c -0.1,5.8 -4.8,10.6 -10.7,10.6 z"
   id="path13" />
<path
   class="st0"
   d="m 12.811894,234.7 c -0.4,0 -0.9,0 -1.4,-0.1 -5.7999999,-0.8 -9.9999999,-6.1 -9.1999999,-12 C 18.611894,95.7 127.71189,0 256.01189,0 c 115.1,0 222.6,74.9 255.5,178.1 1.8,5.6 -1.3,11.6 -6.9,13.4 -5.7,1.8 -11.6,-1.3 -13.4,-6.9 -30.2,-94.6 -129.1,-163.3 -235.2,-163.3 -117.6,0 -217.599996,87.7 -232.599996,204 -0.7,5.4 -5.3,9.4 -10.6,9.4 z"
   id="path15" />
<path
   class="st0"
   d="M 256.01189,512 C 140.71189,512 33.211894,437.1 0.51189411,333.9 -1.2881059,328.3 1.8118941,322.3 7.4118941,320.5 c 5.6999999,-1.8 11.5999999,1.3 13.3999999,7 30,94.5 128.899996,163.2 235.199996,163.2 117.6,0 217.6,-87.7 232.6,-204 0.8,-5.8 5.9,-9.9 12,-9.2 5.8,0.8 10,6.1 9.2,12 -16.4,126.8 -125.5,222.5 -253.8,222.5 z"
   id="path17" />
<path
   class="st1"
   d="m 225.61189,426.7 c -1.3,0 -2.5,-0.2 -3.7,-0.7 -4.7,-1.7 -7.5,-6.5 -6.8,-11.4 l 18.2,-137.3 h -73.3 c -4,0 -7.7,-2.3 -9.5,-5.9 -1.8,-3.6 -1.4,-7.9 1,-11.2 l 128,-170.7 c 3,-4 8.2,-5.3 12.7,-3.4 4.5,1.9 7.1,6.7 6.3,11.6 l -19.3,115.6 h 72.8 c 3.9,0 7.5,2.2 9.4,5.6 1.9,3.5 1.7,7.7 -0.5,10.9 l -126.4,192 c -2.1,3.1 -5.4,4.9 -8.9,4.9 z m -44.3,-170.7 h 64 c 3.1,0 6,1.3 8,3.6 2,2.3 3,5.4 2.6,8.4 l -13.7,103.2 90,-136.6 h -65.5 c -3.1,0 -6.1,-1.4 -8.1,-3.8 -2,-2.4 -2.9,-5.5 -2.4,-8.6 l 14.1,-84.9 z"
   id="path19" />
</svg>
