<?xml version="1.0" encoding="UTF-8" standalone="no"?>
<!-- Generator: Adobe Illustrator 25.4.1, SVG Export Plug-In . SVG Version: 6.00 Build 0)  -->

<svg
   version="1.1"
   id="Icons"
   x="0px"
   y="0px"
   viewBox="0 0 484.35757 297.83514"
   xml:space="preserve"
   sodipodi:docname="co2-cloud.svg"
   width="484.35757"
   height="297.83514"
   inkscape:version="1.1 (c4e8f9e, 2021-05-24)"
   xmlns:inkscape="http://www.inkscape.org/namespaces/inkscape"
   xmlns:sodipodi="http://sodipodi.sourceforge.net/DTD/sodipodi-0.dtd"
   xmlns="http://www.w3.org/2000/svg"
   xmlns:svg="http://www.w3.org/2000/svg"><defs
   id="defs28" /><sodipodi:namedview
   id="namedview26"
   pagecolor="#ffffff"
   bordercolor="#666666"
   borderopacity="1.0"
   inkscape:pageshadow="2"
   inkscape:pageopacity="0.0"
   inkscape:pagecheckerboard="0"
   showgrid="false"
   inkscape:zoom="1.0722656"
   inkscape:cx="241.54463"
   inkscape:cy="148.75046"
   inkscape:window-width="1323"
   inkscape:window-height="771"
   inkscape:window-x="0"
   inkscape:window-y="25"
   inkscape:window-maximized="0"
   inkscape:current-layer="Icons" />
<style
   type="text/css"
   id="style9">
	.st0{fill:#003F6E;}
	.st1{fill:#B1DC4C;}
</style>
<path
   class="st0"
   d="m 410.7,297.83487 h -337 c -40.7,0 -73.7,-33 -73.7,-73.7 0,-38.1 29.1,-70 67,-73.4 3.7,-54.499995 50.9,-95.599995 105.3,-91.899995 8.6,0.6 17.1,2.3 25.3,5.1 30.7,-58.4000001 102.9,-80.9 161.4,-50.2 49.6,26.1 74.5,83.1 59.7,137.199995 40.5,4.5 69.7,40.9 65.2,81.3 -4.1,37.4 -35.6,65.7 -73.2,65.6 z M 165.6,72.434875 c -46.9,0.1 -84.9,37.999995 -84.9,84.899995 0,3.8 -3.1,6.9 -6.9,6.9 -33.1,0 -59.9,26.8 -59.9,59.9 0,33.1 26.8,59.9 59.8,59.9 h 336.9 c 33.1,0 59.9,-26.8 59.9,-59.9 0,-33.1 -26.8,-59.9 -59.9,-59.9 h -1.1 c -3.8,0 -6.9,-3.1 -6.9,-6.9 0,-0.8 0.1,-1.5 0.4,-2.3 4,-11.3 6.1,-23.3 6.1,-35.3 0,-58.399995 -47.3,-105.799995 -105.7,-105.799995 -41.3,0 -78.8,24 -96.1,61.5 -1.6,3.4 -5.5,4.9 -9,3.5 -10.3,-4.3 -21.5,-6.5 -32.7,-6.5 z"
   id="path11" />
<path
   class="st1"
   d="m 204.8,209.93487 11.8,3 c -1.9,8.7 -6.6,16.5 -13.4,22.2 -6.8,5.2 -15.1,7.9 -23.6,7.7 -8.2,0.4 -16.4,-1.7 -23.5,-5.9 -6.2,-4.1 -11,-10.1 -13.8,-17 -3.2,-7.6 -4.8,-15.7 -4.7,-24 -0.2,-8.4 1.6,-16.8 5.3,-24.4 3.3,-6.7 8.6,-12.2 15.2,-15.8 6.7,-3.6 14.1,-5.5 21.7,-5.4 8.1,-0.3 16,2.1 22.6,6.8 6.3,4.8 10.8,11.6 12.8,19.2 l -11.7,2.8 c -1.5,-5.6 -4.6,-10.5 -9,-14.2 -4.3,-3.1 -9.6,-4.7 -14.9,-4.5 -6.1,-0.2 -12.2,1.5 -17.2,4.9 -4.6,3.3 -8,7.9 -9.7,13.3 -1.9,5.5 -2.8,11.3 -2.8,17.2 -0.1,6.8 1,13.5 3.3,19.9 1.9,5.3 5.6,9.8 10.3,12.7 4.6,2.8 9.9,4.2 15.2,4.2 6.1,0.2 12.1,-1.9 16.8,-5.7 5,-4.4 8.2,-10.5 9.3,-17 z"
   id="path13" />
<path
   class="st1"
   d="m 179.6,243.73487 c -8.4,0.4 -16.7,-1.7 -24,-6 -6.4,-4.3 -11.3,-10.3 -14.1,-17.4 -3.2,-7.7 -4.9,-16 -4.8,-24.3 -0.2,-8.6 1.7,-17.1 5.4,-24.8 3.4,-6.8 8.8,-12.5 15.5,-16.2 6.8,-3.7 14.4,-5.6 22.1,-5.5 8.3,-0.3 16.4,2.2 23.1,7 6.4,4.9 11,11.9 13,19.7 l 0.3,0.9 -13.3,3.1 -0.2,-0.8 c -1.4,-5.4 -4.5,-10.2 -8.7,-13.8 -4.2,-3 -9.2,-4.5 -14.4,-4.3 -5.9,-0.2 -11.8,1.5 -16.7,4.8 -4.4,3.2 -7.7,7.7 -9.4,12.8 -1.8,5.4 -2.8,11.2 -2.8,16.9 -0.1,6.7 1,13.3 3.3,19.6 1.8,5.1 5.4,9.4 10,12.3 4.4,2.7 9.5,4.1 14.7,4.1 5.9,0.2 11.7,-1.8 16.3,-5.5 4.8,-4.3 8,-10.2 9,-16.5 l 0.2,-0.9 13.5,3.4 -0.2,0.8 c -1.9,8.9 -6.7,16.9 -13.7,22.7 -6.9,5.3 -15.4,8.1 -24.1,7.9 z m 0.2,-92.5 c -7.4,-0.1 -14.7,1.8 -21.3,5.3 -6.4,3.5 -11.6,8.9 -14.8,15.4 -3.6,7.5 -5.4,15.7 -5.2,24 -0.1,8.1 1.5,16.2 4.7,23.6 2.7,6.8 7.4,12.6 13.5,16.7 7,4.1 15,6.1 23,5.7 8.3,0.2 16.5,-2.4 23.1,-7.5 6.4,-5.4 11,-12.7 12.9,-20.9 l -10.1,-2.6 c -1.2,6.4 -4.6,12.3 -9.4,16.6 -4.9,4 -11.1,6.1 -17.4,5.9 -5.5,0 -10.9,-1.5 -15.6,-4.3 -4.9,-3 -8.7,-7.7 -10.7,-13.1 -2.4,-6.5 -3.5,-13.3 -3.4,-20.2 0,-5.9 1,-11.8 2.9,-17.4 1.8,-5.5 5.3,-10.3 10,-13.7 5.2,-3.5 11.4,-5.3 17.7,-5.1 5.5,-0.2 10.9,1.4 15.4,4.6 4.4,3.6 7.5,8.4 9.1,13.9 l 10,-2.4 c -2,-7.1 -6.3,-13.4 -12.2,-17.9 -6.6,-4.6 -14.4,-6.9 -22.2,-6.6 z"
   id="path15" />
<path
   class="st1"
   d="m 227.6,197.73487 c -0.7,-12.7 3.5,-25.3 12,-34.9 8,-8.4 19.3,-13 30.9,-12.6 7.8,-0.1 15.6,1.9 22.3,5.9 6.6,3.9 11.9,9.6 15.2,16.5 3.6,7.5 5.4,15.7 5.2,24 0.1,8.4 -1.7,16.8 -5.5,24.3 -3.4,6.9 -8.8,12.6 -15.6,16.3 -6.6,3.7 -14.1,5.6 -21.7,5.5 -7.9,0.1 -15.8,-2 -22.6,-6.1 -6.5,-4 -11.8,-9.8 -15.1,-16.7 -3.4,-6.8 -5.1,-14.4 -5.1,-22.2 z m 12.2,0.2 c -0.5,9.3 2.6,18.4 8.7,25.5 11.6,12.1 30.8,12.4 42.9,0.8 0.3,-0.3 0.6,-0.6 0.9,-0.9 6.2,-7.5 9.3,-17 8.6,-26.7 0.1,-6.5 -1.1,-13 -3.7,-19.1 -2.3,-5.2 -6,-9.6 -10.8,-12.6 -4.8,-3 -10.3,-4.6 -16,-4.5 -8.1,-0.1 -15.9,3 -21.6,8.6 -6,5.8 -9,15.4 -9,28.9 z"
   id="path17" />
<path
   class="st1"
   d="m 270.4,243.73487 c -8.1,0.1 -16.1,-2 -23,-6.2 -6.7,-4.1 -12,-10 -15.4,-17 -3.4,-7.1 -5.2,-14.8 -5.2,-22.7 -0.7,-13 3.6,-25.7 12.2,-35.5 8.2,-8.6 19.6,-13.3 31.5,-12.9 8,-0.1 15.9,2 22.8,6 6.7,4 12.1,9.8 15.5,16.9 3.6,7.6 5.4,16 5.3,24.4 0.1,8.6 -1.8,17.1 -5.6,24.7 -3.5,7 -9,12.8 -15.9,16.6 -6.9,3.8 -14.5,5.7 -22.2,5.7 z m 0,-92.6 c -11.4,-0.4 -22.4,4.1 -30.2,12.3 -8.2,9.5 -12.4,21.8 -11.7,34.3 0,7.6 1.7,15.1 5,21.9 3.2,6.7 8.4,12.4 14.7,16.3 6.7,4 14.3,6.1 22.1,6 7.4,0 14.8,-1.8 21.3,-5.4 6.6,-3.6 11.9,-9.2 15.2,-15.9 3.7,-7.4 5.5,-15.6 5.4,-23.9 0.1,-8.2 -1.6,-16.3 -5.1,-23.6 -3.2,-6.7 -8.4,-12.3 -14.8,-16.1 -6.6,-4 -14.2,-6 -21.9,-5.9 z m -0.1,82.4 c -8.5,0.2 -16.7,-3.3 -22.4,-9.6 -6.2,-7.2 -9.4,-16.5 -8.9,-26.1 0,-13.6 3.1,-23.5 9.3,-29.4 5.9,-5.8 13.9,-9 22.2,-8.9 5.8,-0.1 11.5,1.5 16.4,4.6 4.9,3.1 8.8,7.7 11.1,13 2.6,6.1 3.9,12.8 3.8,19.4 0.6,9.9 -2.6,19.6 -8.9,27.2 -5.7,6.5 -14,10.1 -22.6,9.8 z m 0.2,-72.2 c -7.8,-0.1 -15.4,2.9 -21,8.4 -5.8,5.5 -8.8,15 -8.8,28.2 -0.5,9.1 2.5,18 8.5,24.9 11.3,11.7 29.9,12.1 41.7,0.8 0.3,-0.3 0.6,-0.6 0.9,-0.9 6,-7.3 9,-16.6 8.4,-26.1 0.1,-6.4 -1.1,-12.8 -3.6,-18.7 -2.2,-5 -5.8,-9.3 -10.5,-12.3 -4.8,-2.8 -10.1,-4.4 -15.6,-4.3 z"
   id="path19" />
<path
   class="st1"
   d="m 368.9,239.93487 v 5.9 h -33.3 c -0.1,-1.5 0.2,-2.9 0.7,-4.3 1,-2.5 2.3,-4.7 4.1,-6.7 2.5,-2.8 5.2,-5.3 8.1,-7.6 4.1,-3.1 7.8,-6.7 11.1,-10.7 1.7,-2.1 2.7,-4.7 2.9,-7.4 0.1,-2.4 -0.9,-4.6 -2.6,-6.2 -1.9,-1.7 -4.3,-2.6 -6.8,-2.5 -2.6,-0.1 -5.2,0.8 -7.1,2.7 -1.9,2 -2.8,4.7 -2.7,7.4 l -6.4,-0.7 c 0.1,-4.1 1.9,-8 4.9,-10.8 3.2,-2.6 7.3,-3.9 11.4,-3.7 4.2,-0.2 8.3,1.2 11.5,4 2.8,2.6 4.3,6.2 4.3,10 0,2 -0.4,4.1 -1.2,5.9 -1,2.3 -2.4,4.3 -4.1,6.2 -3,3.2 -6.2,6.1 -9.5,8.9 -3.7,3.1 -6.1,5.2 -7.1,6.3 -1,1 -1.9,2.1 -2.6,3.3 z"
   id="path21" />
<path
   class="st1"
   d="m 370.6,247.53487 h -36.7 l -0.1,-1.7 c -0.1,-1.7 0.2,-3.4 0.8,-5 1,-2.6 2.5,-5.1 4.3,-7.2 2.5,-2.9 5.3,-5.5 8.3,-7.8 4,-3 7.6,-6.5 10.8,-10.4 1.5,-1.8 2.4,-4.1 2.6,-6.4 0.1,-1.9 -0.7,-3.7 -2.1,-4.9 -1.5,-1.4 -3.6,-2.2 -5.7,-2.1 -2.2,-0.1 -4.3,0.7 -5.9,2.2 -1.6,1.7 -2.4,3.9 -2.2,6.2 v 1.9 l -9.9,-1 0.2,-1.7 c 0.2,-4.6 2.2,-8.9 5.5,-12 3.5,-2.9 8,-4.4 12.6,-4.2 4.6,-0.2 9.2,1.4 12.7,4.5 3.1,2.9 4.8,7 4.8,11.2 0,2.3 -0.5,4.5 -1.4,6.6 -1.1,2.4 -2.6,4.7 -4.4,6.6 -3,3.2 -6.3,6.2 -9.7,9 -3.6,3 -6,5.1 -7,6.2 l -0.4,0.4 h 23 z m -33.2,-3.4 h 29.8 v -2.5 h -26 l 1.6,-2.6 c 0.8,-1.3 1.8,-2.5 2.8,-3.6 1.1,-1.2 3.5,-3.3 7.3,-6.5 3.3,-2.7 6.4,-5.6 9.3,-8.7 1.6,-1.7 2.8,-3.6 3.8,-5.7 0.7,-1.7 1.1,-3.5 1.1,-5.3 0.1,-3.3 -1.3,-6.5 -3.7,-8.7 -2.8,-2.5 -6.5,-3.8 -10.3,-3.5 -3.7,-0.2 -7.4,1 -10.3,3.3 -2.3,2.1 -3.7,4.9 -4.1,8 l 2.8,0.3 c 0.2,-2.5 1.3,-4.9 3.1,-6.7 2.2,-2.2 5.3,-3.3 8.4,-3.2 3,-0.1 5.9,1 8.1,3 2.1,1.9 3.2,4.6 3.2,7.4 -0.1,3.1 -1.3,6.1 -3.2,8.5 -3.4,4.1 -7.2,7.8 -11.4,11 -2.8,2.2 -5.5,4.7 -7.9,7.4 -1.6,1.8 -2.9,3.9 -3.8,6.2 -0.3,0.6 -0.5,1.2 -0.6,1.9 z"
   id="path23" />
</svg>
