<?xml version="1.0" encoding="UTF-8" standalone="no"?>
<!-- Generator: Adobe Illustrator 25.4.1, SVG Export Plug-In . SVG Version: 6.00 Build 0)  -->

<svg
   version="1.1"
   id="Capa_1"
   x="0px"
   y="0px"
   viewBox="0 0 512 287"
   xml:space="preserve"
   sodipodi:docname="wood.svg"
   width="512"
   height="287"
   inkscape:version="1.1 (c4e8f9e, 2021-05-24)"
   xmlns:inkscape="http://www.inkscape.org/namespaces/inkscape"
   xmlns:sodipodi="http://sodipodi.sourceforge.net/DTD/sodipodi-0.dtd"
   xmlns="http://www.w3.org/2000/svg"
   xmlns:svg="http://www.w3.org/2000/svg"><defs
   id="defs32" /><sodipodi:namedview
   id="namedview30"
   pagecolor="#ffffff"
   bordercolor="#666666"
   borderopacity="1.0"
   inkscape:pageshadow="2"
   inkscape:pageopacity="0.0"
   inkscape:pagecheckerboard="0"
   showgrid="false"
   inkscape:zoom="1.0722656"
   inkscape:cx="255.5337"
   inkscape:cy="143.15483"
   inkscape:window-width="1323"
   inkscape:window-height="771"
   inkscape:window-x="0"
   inkscape:window-y="25"
   inkscape:window-maximized="0"
   inkscape:current-layer="Capa_1" />
<style
   type="text/css"
   id="style9">
	.st0{fill:#003F6E;}
	.st1{fill:#B1DC4C;}
</style>
<path
   class="st0"
   d="m 498.4,168.2 c -2.4,-3.4 -7.1,-4.2 -10.4,-1.8 -3.4,2.4 -4.2,7.1 -1.8,10.4 7.1,10.2 10.9,22.2 10.9,34.7 0,33.4 -27.1,60.5 -60.5,60.5 -33.4,0 -60.6,-27.1 -60.6,-60.5 0,-33.4 27.1,-60.5 60.5,-60.5 8.9,0 17.4,1.9 25.4,5.6 3.8,1.7 8.2,0.1 10,-3.6 1.7,-3.8 0.1,-8.2 -3.6,-10 -10,-4.6 -20.7,-7 -31.7,-7 H 413.7 C 432,122.2 444,100.2 444,75.5 444,33.9 410.1,0 368.5,0 H 261 c -4.1,0 -7.5,3.4 -7.5,7.5 0,4.1 3.4,7.5 7.5,7.5 h 62.4 C 305,28.8 293,50.8 293,75.5 c 0,5.7 0.6,11.2 1.8,16.5 h -32.3 c -4.1,0 -7.5,3.4 -7.5,7.5 0,4.1 3.4,7.5 7.5,7.5 h 37.4 c 5.3,11.5 13.4,21.5 23.5,29 H 300.5 213 c -4.1,0 -7.5,3.4 -7.5,7.5 0,4.1 3.4,7.5 7.5,7.5 h 42.4 c -9.5,7.1 -17.2,16.3 -22.5,27 H 127.5 c -4.1,0 -7.5,3.4 -7.5,7.5 0,4.1 3.4,7.5 7.5,7.5 h 99.8 c -1.5,5.9 -2.3,12.1 -2.3,18.5 0,6 0.7,11.9 2.1,17.5 h -45.6 c -4.1,0 -7.5,3.4 -7.5,7.5 0,4.1 3.4,7.5 7.5,7.5 h 50.9 c 5.3,11.1 13.3,20.7 23,28 H 147 c -4.1,0 -7.5,3.4 -7.5,7.5 0,4.1 3.4,7.5 7.5,7.5 h 289.5 c 41.6,0 75.5,-33.9 75.5,-75.5 0,-15.6 -4.7,-30.5 -13.6,-43.3 z M 308,75.5 C 308,42.1 335.1,15 368.5,15 401.9,15 429,42.1 429,75.5 429,108.9 401.9,136 368.5,136 335.1,136 308,108.9 308,75.5 Z m 83.4,75.5 c -9.7,7.2 -17.6,16.7 -22.9,27.7 -5.3,-11 -13.2,-20.5 -22.9,-27.7 z M 240,211.5 c 0,-33.4 27.1,-60.5 60.5,-60.5 33.4,0 60.5,27.1 60.5,60.5 0,33.4 -27.1,60.5 -60.5,60.5 C 267.1,272 240,244.9 240,211.5 Z M 345.6,272 c 9.7,-7.2 17.6,-16.7 22.9,-27.7 5.3,11 13.2,20.5 22.9,27.7 z"
   id="path11" />
<path
   class="st1"
   d="m 420.6,185.5 c 3.5,-2.2 4.6,-6.8 2.5,-10.3 -2.2,-3.5 -6.8,-4.6 -10.3,-2.5 -13.6,8.4 -21.7,22.9 -21.7,38.8 0,19.8 13.2,37.7 32.2,43.5 3.9,1.2 8.2,-1 9.4,-5 1.2,-4 -1,-8.2 -5,-9.4 -12.7,-3.9 -21.6,-15.9 -21.6,-29.2 -0.1,-10.6 5.3,-20.3 14.5,-25.9 z"
   id="path13" />
<path
   class="st1"
   d="m 455,235.7 c -3.3,2.5 -3.9,7.2 -1.4,10.5 2.5,3.3 7.2,3.9 10.5,1.4 11.4,-8.7 17.9,-21.9 17.9,-36.2 0,-15.1 -7.5,-29.2 -20.1,-37.7 -3.4,-2.3 -8.1,-1.4 -10.4,2 -2.3,3.4 -1.4,8.1 2,10.4 8.4,5.7 13.5,15.2 13.5,25.3 0,9.7 -4.4,18.5 -12,24.3 z"
   id="path15" />
<path
   class="st0"
   d="M 111.8,272 H 57.5 c 0,0 -0.1,0 -0.1,0 -0.2,0 -15,0 -26.7,-11.6 C 26.3,256 22.8,250.5 20.2,244 h 81.3 c 4.1,0 7.5,-3.4 7.5,-7.5 0,-4.1 -3.4,-7.5 -7.5,-7.5 H 16.2 c -1.8,-10.7 -1.6,-25.8 0.4,-36 h 55.9 c 4.1,0 7.5,-3.4 7.5,-7.5 0,-4.1 -3.4,-7.5 -7.5,-7.5 H 21.1 C 32.5,151.7 56.2,151 57.5,151 H 178 c 4.1,0 7.5,-3.4 7.5,-7.5 0,-4.1 -3.4,-7.5 -7.5,-7.5 -1.5,-0.4 -63,0.7 -64.2,-0.4 -8.5,-1.4 -25.2,-6.9 -33.6,-28.6 h 134.4 c 4.1,0 7.5,-3.4 7.5,-7.5 0,-4.1 -3.4,-7.5 -7.5,-7.5 H 76.2 c -1.6,-9.5 -1.6,-23.5 0,-33 h 97.3 c 4.1,0 7.5,-3.4 7.5,-7.5 0,-4.1 -3.4,-7.5 -7.5,-7.5 H 80.2 c 11,-28.3 36,-29 37.3,-29 H 226 c 4.1,0 7.5,-3.4 7.5,-7.5 C 233.5,3.4 230.1,0 226,0 H 117.5 C 116.9,0 102.5,0.1 88.3,9.8 75.4,18.6 60,37.1 60,75.5 60,107 70.2,125.3 81.9,136 H 57.5 c -0.6,0 -15,0.1 -29.2,9.9 C 15.4,154.7 0,173.4 0,212.1 c 0,26.1 6.8,46 20.4,59.2 15.5,15.1 34.3,15.7 37,15.7 0.1,0 0.1,0 0.2,0 h 54.2 c 4.1,0 7.5,-3.4 7.5,-7.5 0,-4.1 -3.4,-7.5 -7.5,-7.5 z"
   id="path17" />
<path
   class="st1"
   d="m 277.1,250.5 c 3.5,2.1 8.1,1 10.3,-2.5 2.1,-3.5 1,-8.2 -2.5,-10.3 -9.3,-5.6 -14.8,-15.4 -14.8,-26.1 0,-4.9 1.1,-9.5 3.3,-13.8 1.9,-3.7 0.4,-8.2 -3.3,-10.1 -3.7,-1.9 -8.2,-0.4 -10.1,3.3 -3.2,6.3 -4.9,13.5 -4.9,20.6 -0.1,15.7 8.3,30.7 22,38.9 z"
   id="path19" />
<path
   class="st1"
   d="m 300.5,181 c 16.8,0 30.5,13.7 30.5,30.5 0,12.3 -7.3,23.3 -18.6,28.1 -3.8,1.6 -5.6,6 -4,9.8 1.6,3.9 6.1,5.6 9.8,4 16.9,-7.2 27.8,-23.6 27.8,-41.9 0,-25.1 -20.4,-45.5 -45.5,-45.5 -4.1,0 -7.5,3.4 -7.5,7.5 0,4.1 3.4,7.5 7.5,7.5 z"
   id="path21" />
<path
   class="st1"
   d="m 368.5,45 c 4.1,0 7.5,-3.4 7.5,-7.5 0,-4.1 -3.4,-7.5 -7.5,-7.5 -25.1,0 -45.5,20.4 -45.5,45.5 0,6.9 1.5,13.5 4.5,19.7 1.8,3.8 6.4,5.3 10,3.5 3.7,-1.8 5.3,-6.3 3.5,-10 -2,-4.1 -3,-8.6 -3,-13.2 C 338,58.7 351.7,45 368.5,45 Z"
   id="path23" />
<path
   class="st1"
   d="m 406.5,68 c -4.1,0 -7.5,3.4 -7.5,7.5 0,16.8 -13.7,30.5 -30.5,30.5 -3.2,0 -6.4,-0.5 -9.4,-1.5 -3.9,-1.3 -8.2,0.9 -9.4,4.8 -1.3,3.9 0.9,8.2 4.8,9.4 4.5,1.5 9.2,2.2 14,2.2 25.1,0 45.5,-20.4 45.5,-45.5 0,-4 -3.4,-7.4 -7.5,-7.4 z"
   id="path25" />
<path
   class="st0"
   d="m 207,51.5 c 0,4.1 3.4,7.5 7.5,7.5 h 30 c 4.1,0 7.5,-3.4 7.5,-7.5 0,-4.1 -3.4,-7.5 -7.5,-7.5 h -30 c -4.1,0 -7.5,3.4 -7.5,7.5 z"
   id="path27" />
</svg>
