<?xml version="1.0" encoding="UTF-8" standalone="no"?>
<!-- Generator: Adobe Illustrator 25.4.1, SVG Export Plug-In . SVG Version: 6.00 Build 0)  -->

<svg
   version="1.1"
   id="Capa_1"
   x="0px"
   y="0px"
   viewBox="0 0 401.39999 512"
   xml:space="preserve"
   sodipodi:docname="water-drop.svg"
   width="401.39999"
   height="512"
   inkscape:version="1.1 (c4e8f9e, 2021-05-24)"
   xmlns:inkscape="http://www.inkscape.org/namespaces/inkscape"
   xmlns:sodipodi="http://sodipodi.sourceforge.net/DTD/sodipodi-0.dtd"
   xmlns="http://www.w3.org/2000/svg"
   xmlns:svg="http://www.w3.org/2000/svg"><defs
   id="defs126" /><sodipodi:namedview
   id="namedview124"
   pagecolor="#ffffff"
   bordercolor="#666666"
   borderopacity="1.0"
   inkscape:pageshadow="2"
   inkscape:pageopacity="0.0"
   inkscape:pagecheckerboard="0"
   showgrid="false"
   inkscape:zoom="1.0820312"
   inkscape:cx="200.08664"
   inkscape:cy="256"
   inkscape:window-width="1310"
   inkscape:window-height="776"
   inkscape:window-x="0"
   inkscape:window-y="25"
   inkscape:window-maximized="0"
   inkscape:current-layer="Capa_1" />
<style
   type="text/css"
   id="style115">
	.st0{fill:#B1DC4C;}
	.st1{fill:#003F6E;}
</style>
<path
   class="st0"
   d="M 144.5,440.6 C 95.1,425.2 61.9,380.1 61.9,328.4 c 0,-25.3 7.9,-49.4 22.9,-69.7 0.3,-0.5 0.7,-1 0.9,-1.5 2.5,-5 0.5,-11 -4.5,-13.4 -4.5,-2.2 -9.8,-0.8 -12.7,3.2 -17.5,23.7 -26.7,51.9 -26.7,81.5 0,29.9 9.5,58.4 27.3,82.3 17.3,23.1 41.9,40.5 69.3,49.1 1,0.3 2,0.5 3,0.5 4.3,0 8.2,-2.8 9.6,-7.1 1.7,-5.4 -1.3,-11 -6.5,-12.7 z"
   id="path117" />
<path
   class="st1"
   d="m 401.4,234.3 c 0,-19.1 -5.9,-37.3 -17.2,-52.6 L 320.7,87.5 c -1.9,-2.8 -5,-4.4 -8.3,-4.4 -3.3,0 -6.5,1.7 -8.3,4.4 L 277.4,127.2 194.7,4.4 c -1.9,-2.8 -5,-4.4 -8.3,-4.4 -3.3,0 -6.5,1.7 -8.3,4.4 L 36.2,215.1 C 12.5,247.3 0,285.5 0,325.5 0,428.3 83.6,512 186.5,512 289.4,512 373,428.4 373,325.5 c 0,-8.2 -0.5,-16.4 -1.6,-24.5 18.4,-16.3 30,-40.2 30,-66.7 z M 312.5,111 l 55.1,81.9 c 0.1,0.2 0.2,0.3 0.3,0.5 8.8,11.9 13.4,26 13.4,40.9 0,38 -30.9,68.9 -68.9,68.9 -38,0 -68.9,-30.9 -68.9,-68.9 0,-14.9 4.6,-29 13.4,-40.9 0.1,-0.2 0.2,-0.3 0.3,-0.5 l 28.4,-42.2 c 0.1,-0.1 0.1,-0.2 0.2,-0.2 z m 40.3,214.5 c 0,91.8 -74.6,166.4 -166.4,166.4 C 94.6,491.9 20,417.3 20,325.5 c 0,-35.8 11.2,-70 32.4,-98.7 0.1,-0.2 0.2,-0.3 0.4,-0.5 L 186.4,28 l 78.9,117.1 -24.6,36.6 c -11.3,15.3 -17.2,33.5 -17.2,52.6 0,49.1 39.9,89 89,89 14.3,0 27.9,-3.4 39.9,-9.5 0.3,3.9 0.4,7.8 0.4,11.7 z"
   id="path119" />
<path
   class="st0"
   d="m 277.1,231.8 c 0,-4.9 1,-9.5 2.9,-13.9 2.2,-5.1 0,-11 -5.1,-13.2 -5.1,-2.2 -11,0 -13.2,5.1 -3.1,7 -4.7,14.4 -4.7,22.1 0,18.2 9,35.1 24.2,45.2 1.7,1.1 3.6,1.7 5.6,1.7 3.2,0 6.4,-1.6 8.3,-4.5 3.1,-4.6 1.8,-10.8 -2.8,-13.9 -9.5,-6.4 -15.2,-17.1 -15.2,-28.6 z"
   id="path121" />
</svg>
