<?xml version="1.0" encoding="utf-8"?>
<!-- Generator: Adobe Illustrator 25.4.1, SVG Export Plug-In . SVG Version: 6.00 Build 0)  -->
<svg version="1.1" id="Calque_1" xmlns="http://www.w3.org/2000/svg" xmlns:xlink="http://www.w3.org/1999/xlink" x="0px" y="0px"
	 viewBox="0 0 64 64" style="enable-background:new 0 0 64 64;" xml:space="preserve">
<style type="text/css">
	.st0{fill:#B1DC4C;}
</style>
<path class="st0" d="M32.5,5c-19,5.2-30.2,24.9-25,44l4.1,14.8c11.7-3.2,19.7-5.4,19.7-5.4c19-5.2,30.2-24.8,25-43.8
	c0,0,0-0.1,0-0.1L52.7,1.4c-0.3-1-1.3-1.6-2.3-1.3c0,0,0,0,0,0L32.5,5z M42.9,13.8c0.2,1.3-0.7,2.4-2,2.6c0,0,0,0,0,0
	c-8,1.1-14.6,5.1-18,10.9c-3.1,5.3-3.5,11.6-1,18.2c0.5,1.2-0.1,2.5-1.3,3c0,0,0,0-0.1,0h-0.1c-1.2,0.3-2.4-0.3-2.8-1.4
	c-3-7.9-2.5-15.8,1.3-22.2c4.2-7,11.9-11.8,21.4-13.2C41.6,11.7,42.7,12.6,42.9,13.8z"/>
</svg>
