<?xml version="1.0" encoding="UTF-8" standalone="no"?>
<svg
   xmlns:dc="http://purl.org/dc/elements/1.1/"
   xmlns:cc="http://creativecommons.org/ns#"
   xmlns:rdf="http://www.w3.org/1999/02/22-rdf-syntax-ns#"
   xmlns:svg="http://www.w3.org/2000/svg"
   xmlns="http://www.w3.org/2000/svg"
   xmlns:sodipodi="http://sodipodi.sourceforge.net/DTD/sodipodi-0.dtd"
   xmlns:inkscape="http://www.inkscape.org/namespaces/inkscape"
   version="1.1"
   id="Calque_1"
   x="0px"
   y="0px"
   viewBox="0 0 100.37155 124.52001"
   xml:space="preserve"
   sodipodi:docname="feuille.svg"
   width="100.37155"
   height="124.52"
   inkscape:version="1.0.2 (e86c870879, 2021-01-15)"><metadata
   id="metadata11"><rdf:RDF><cc:Work
       rdf:about=""><dc:format>image/svg+xml</dc:format><dc:type
         rdf:resource="http://purl.org/dc/dcmitype/StillImage" /><dc:title></dc:title></cc:Work></rdf:RDF></metadata><defs
   id="defs9" /><sodipodi:namedview
   pagecolor="#ffffff"
   bordercolor="#666666"
   borderopacity="1"
   objecttolerance="10"
   gridtolerance="10"
   guidetolerance="10"
   inkscape:pageopacity="0"
   inkscape:pageshadow="2"
   inkscape:window-width="1920"
   inkscape:window-height="1051"
   id="namedview7"
   showgrid="false"
   fit-margin-top="0"
   fit-margin-left="0"
   fit-margin-right="0"
   fit-margin-bottom="0"
   inkscape:zoom="5.7383628"
   inkscape:cx="45.897505"
   inkscape:cy="60.449013"
   inkscape:window-x="0"
   inkscape:window-y="0"
   inkscape:window-maximized="1"
   inkscape:current-layer="Calque_1" />
<style
   type="text/css"
   id="style2">
	.st0{opacity:0.15;fill:#007EFF;}
</style>
<path
   class="st0"
   d="m 51.310186,9.7200049 c -37.2,10.2000001 -59,48.7000001 -48.8,85.8000001 l 8,28.999995 c 22.9,-6.2 38.5,-10.5 38.5,-10.5 37.1,-10.2 59.000004,-48.499995 48.9,-85.599995 0,-0.1 0,-0.2 -0.1,-0.2 l -7,-25.5000001 c -0.5,-2.00000003 -2.6,-3.10000003 -4.5,-2.60000003 0,0 0,0 0,0 z m 20.2,17.2000001 c 0.4,2.5 -1.4,4.8 -3.9,5.1 0,0 0,0 0,0 -15.6,2.2 -28.5,10 -35.3,21.4 -6.1,10.3 -6.8,22.6 -1.9,35.5 1,2.3 -0.1,5 -2.5,5.9 0,0 -0.1,0 -0.1,0.1 h -0.3 c -2.3,0.6 -4.6,-0.6 -5.5,-2.8 -5.8,-15.4 -4.8,-30.8 2.6,-43.4 8.1,-13.7 23.3,-23.1 41.8,-25.7 2.5,-0.3 4.8,1.4 5.1,3.9 z"
   id="path4" />
</svg>
