<?xml version="1.0" encoding="UTF-8" standalone="no"?>
<svg
   xmlns:dc="http://purl.org/dc/elements/1.1/"
   xmlns:cc="http://creativecommons.org/ns#"
   xmlns:rdf="http://www.w3.org/1999/02/22-rdf-syntax-ns#"
   xmlns:svg="http://www.w3.org/2000/svg"
   xmlns="http://www.w3.org/2000/svg"
   xmlns:sodipodi="http://sodipodi.sourceforge.net/DTD/sodipodi-0.dtd"
   xmlns:inkscape="http://www.inkscape.org/namespaces/inkscape"
   id="Calque_1"
   data-name="Calque 1"
   viewBox="0 0 264.69001 85.538188"
   version="1.1"
   sodipodi:docname="ID-triethic-logo-principal-white.svg"
   width="264.69"
   height="85.538185"
   inkscape:version="1.0.2 (e86c870879, 2021-01-15)">
  <metadata
     id="metadata77">
    <rdf:RDF>
      <cc:Work
         rdf:about="">
        <dc:format>image/svg+xml</dc:format>
        <dc:type
           rdf:resource="http://purl.org/dc/dcmitype/StillImage" />
        <dc:title>ID-triethic-logo-principal-white</dc:title>
      </cc:Work>
    </rdf:RDF>
  </metadata>
  <sodipodi:namedview
     pagecolor="#ffffff"
     bordercolor="#666666"
     borderopacity="1"
     objecttolerance="10"
     gridtolerance="10"
     guidetolerance="10"
     inkscape:pageopacity="0"
     inkscape:pageshadow="2"
     inkscape:window-width="1920"
     inkscape:window-height="1051"
     id="namedview75"
     showgrid="false"
     fit-margin-top="0"
     fit-margin-left="0"
     fit-margin-right="0"
     fit-margin-bottom="0"
     inkscape:zoom="3.920163"
     inkscape:cx="128.135"
     inkscape:cy="37.818181"
     inkscape:window-x="0"
     inkscape:window-y="0"
     inkscape:window-maximized="1"
     inkscape:current-layer="Calque_1" />
  <defs
     id="defs4">
    <style
       id="style2">.cls-1{fill:#fff;}</style>
  </defs>
  <title
     id="title6">ID-triethic-logo-principal-white</title>
  <path
     class="cls-1"
     d="m 77.68,79.808184 v 1.41 h -0.67 a 2.33,2.33 0 0 1 -2.42,-1.21 l -2.28,-3.44 h -1.48 v 4.55 h -1.84 v -12.23 h 4.73 a 3.55,3.55 0 0 1 3.69,3.87 c 0,1.83 -0.89,3.65 -3.17,3.77 l 1.72,2.54 c 0.51,0.73 0.83,0.74 1.32,0.74 z m -6.85,-4.83 h 2.77 a 2,2 0 0 0 2,-2.23 1.94,1.94 0 0 0 -1.94,-2.2 h -2.8 z"
     id="path8" />
  <path
     class="cls-1"
     d="M 88.23,77.458184 H 81.4 a 2.53,2.53 0 0 0 2.67,2.35 2.79,2.79 0 0 0 2.38,-1.21 l 1.32,0.81 a 4.35,4.35 0 0 1 -3.73,1.91 4.44,4.44 0 0 1 0,-8.88 4.18,4.18 0 0 1 4.26,4.4 z m -1.68,-1.15 a 2.36,2.36 0 0 0 -2.53,-2.33 2.52,2.52 0 0 0 -2.6,2.33 z"
     id="path10" />
  <path
     class="cls-1"
     d="m 90.35,76.848184 a 4.34,4.34 0 0 1 4.46,-4.41 4,4 0 0 1 3.69,2.2 l -1.5,0.73 a 2.54,2.54 0 0 0 -2.22,-1.25 2.66,2.66 0 0 0 -2.67,2.73 2.72,2.72 0 0 0 2.67,2.81 2.59,2.59 0 0 0 2.21,-1.22 l 1.55,0.68 a 4.07,4.07 0 0 1 -3.72,2.2 4.36,4.36 0 0 1 -4.47,-4.47 z"
     id="path12" />
  <path
     class="cls-1"
     d="m 109.08,72.608184 -4.3,10.31 c -0.7,1.74 -1.24,2.62 -3,2.62 h -1.31 v -1.7 h 1.25 a 1.24,1.24 0 0 0 1.24,-0.92 l 0.72,-1.7 -3.33,-8.61 h 1.91 l 2.37,6.31 2.63,-6.31 z"
     id="path14" />
  <path
     class="cls-1"
     d="m 110.59,76.848184 a 4.34,4.34 0 0 1 4.46,-4.41 4.07,4.07 0 0 1 3.7,2.2 l -1.51,0.73 a 2.53,2.53 0 0 0 -2.24,-1.25 2.67,2.67 0 0 0 -2.67,2.73 2.72,2.72 0 0 0 2.67,2.81 2.58,2.58 0 0 0 2.21,-1.22 l 1.57,0.68 a 4.07,4.07 0 0 1 -3.72,2.2 4.36,4.36 0 0 1 -4.47,-4.47 z"
     id="path16" />
  <path
     class="cls-1"
     d="m 121.4,68.468184 h 1.79 v 12.65 h -1.79 z"
     id="path18" />
  <path
     class="cls-1"
     d="m 134.5,77.458184 h -6.84 a 2.53,2.53 0 0 0 2.68,2.35 2.78,2.78 0 0 0 2.37,-1.21 l 1.32,0.81 a 4.33,4.33 0 0 1 -3.73,1.91 4.4400704,4.4400704 0 0 1 -0.05,-8.88 4.17,4.17 0 0 1 4.26,4.4 z m -1.72,-1.15 a 2.35,2.35 0 0 0 -2.52,-2.33 2.53,2.53 0 0 0 -2.61,2.33 z"
     id="path20" />
  <path
     class="cls-1"
     d="m 142.23,72.438184 v 1.68 h -1 c -2.21,0 -2.36,2.47 -2.36,2.47 v 4.53 h -1.78 v -8.54 h 1.78 v 1.81 a 2.55,2.55 0 0 1 2.36,-2 z"
     id="path22" />
  <path
     class="cls-1"
     d="m 143.78,83.008184 a 6.26,6.26 0 0 0 1.2,-3.89 h 1.65 a 5.87,5.87 0 0 1 -1.87,4.34 z"
     id="path24" />
  <path
     class="cls-1"
     d="m 158.05,81.318184 v 0.62 c 1,0.14 2.3,0.56 2.3,1.74 0,1.18 -1.1,1.83 -2.57,1.83 a 3.81,3.81 0 0 1 -1.61,-0.37 v -1 a 4.72,4.72 0 0 0 1.54,0.32 c 0.75,0 1.39,-0.32 1.39,-0.78 0,-0.68 -1,-0.86 -2.12,-0.86 v -1.56 a 4.44,4.44 0 0 1 0.89,-8.79 4.06,4.06 0 0 1 3.69,2.2 l -1.5,0.73 a 2.55,2.55 0 0 0 -2.24,-1.25 2.66,2.66 0 0 0 -2.67,2.73 2.72,2.72 0 0 0 2.67,2.81 2.58,2.58 0 0 0 2.2,-1.22 l 1.56,0.68 a 4.06,4.06 0 0 1 -3.53,2.17 z"
     id="path26" />
  <path
     class="cls-1"
     d="m 172.78,72.608184 v 8.51 h -1.77 v -1.64 a 3.24,3.24 0 0 1 -3,1.81 4.44,4.44 0 0 1 0,-8.88 3.25,3.25 0 0 1 3,1.83 v -1.66 z m -1.77,4.29 v -0.06 a 2.79,2.79 0 1 0 0,0.06 z"
     id="path28" />
  <path
     class="cls-1"
     d="m 188.46,72.608184 -3.57,8.51 h -1.66 l -3.56,-8.54 h 1.89 l 2.49,6.39 2.51,-6.39 z"
     id="path30" />
  <path
     class="cls-1"
     d="m 199,72.608184 v 8.51 h -1.77 v -1.64 a 3.26,3.26 0 0 1 -3,1.81 4.44,4.44 0 0 1 0,-8.88 3.26,3.26 0 0 1 3,1.83 v -1.66 z m -1.77,4.29 v -0.06 a 2.79,2.79 0 1 0 0,0.06 z"
     id="path32" />
  <path
     class="cls-1"
     d="m 202.22,68.468184 h 1.79 v 12.65 h -1.79 z"
     id="path34" />
  <path
     class="cls-1"
     d="m 206.71,76.868184 a 4.46,4.46 0 1 1 4.46,4.45 4.33,4.33 0 0 1 -4.46,-4.45 z m 7.2,0 a 2.76,2.76 0 0 0 -5.51,0 2.76,2.76 0 1 0 5.51,0 z"
     id="path36" />
  <path
     class="cls-1"
     d="m 223.43,72.438184 v 1.68 h -1 c -2.21,0 -2.36,2.47 -2.36,2.47 v 4.53 h -1.79 v -8.54 h 1.79 v 1.81 a 2.54,2.54 0 0 1 2.36,-2 z"
     id="path38" />
  <path
     class="cls-1"
     d="m 225.29,69.838184 a 1.05,1.05 0 1 1 1.05,1 0.94,0.94 0 0 1 -1.05,-1 z m 0.16,2.77 h 1.77 v 8.51 h -1.77 z"
     id="path40" />
  <path
     class="cls-1"
     d="m 229.78,79.038184 1.56,-0.44 a 2,2 0 0 0 2,1.3 c 1,0 1.55,-0.48 1.55,-1.08 0,-0.6 -0.45,-1 -1.32,-1.17 -1.08,-0.31 -3.54,-0.68 -3.54,-2.71 0,-1.57 1.49,-2.5 3.16,-2.5 a 3.28,3.28 0 0 1 3.24,1.93 l -1.52,0.57 a 1.71,1.71 0 0 0 -1.65,-1.06 c -0.74,0 -1.44,0.34 -1.44,1 0,0.93 1.4,1.13 2.37,1.4 2.28,0.66 2.51,1.74 2.51,2.42 0,1.74 -1.57,2.62 -3.31,2.62 a 3.62,3.62 0 0 1 -3.61,-2.28 z"
     id="path42" />
  <path
     class="cls-1"
     d="m 247.49,77.458184 h -6.84 a 2.53,2.53 0 0 0 2.68,2.35 2.78,2.78 0 0 0 2.37,-1.21 l 1.32,0.81 a 4.33,4.33 0 0 1 -3.73,1.91 4.4400704,4.4400704 0 0 1 -0.05,-8.88 4.18,4.18 0 0 1 4.26,4.4 z m -1.71,-1.15 a 2.35,2.35 0 0 0 -2.52,-2.33 2.53,2.53 0 0 0 -2.61,2.33 z"
     id="path44" />
  <path
     class="cls-1"
     d="m 34.34,1.4581843 a 10.17,10.17 0 0 0 -7.1,12.5199997 l 1.16,4.22 5.61,-1.53 A 10.18,10.18 0 0 0 41.12,4.1181843 l -1,-3.71999999 a 0.54,0.54 0 0 0 -0.66,-0.38 z m 3,2.51 a 0.66,0.66 0 0 1 -0.56,0.75 7,7 0 0 0 -5.13,3.11 5.86,5.86 0 0 0 -0.28,5.1899997 0.66,0.66 0 0 1 -0.39,0.85 h -0.06 a 0.66,0.66 0 0 1 -0.79,-0.41 7.17,7.17 0 0 1 0.34,-6.3399997 8.24,8.24 0 0 1 6.08,-3.75 0.66,0.66 0 0 1 0.75,0.6 z"
     id="path46" />
  <path
     class="cls-1"
     d="m 22.97,49.728184 v 0 a 13.45,13.45 0 0 1 -8.19,-2.61 8.78,8.78 0 0 1 -3.74,-6.56 v -14.44 c 0,-2.43 2,-2.43 6.74,-2.43 h 0.79 a 0.44,0.44 0 0 1 0.48,0.38 v 4 a 0.43,0.43 0 0 0 0.43,0.38 h 0.58 c 1.9,0 5.48,-1.72 5.48,-1.72 0,0 0,2.81 0,4.79 v 0.12 l -0.08,0.1 c 0,0.06 -1.25,1.47 -5.31,1.47 h -0.61 a 0.44,0.44 0 0 0 -0.5,0.38 v 5 a 4.19,4.19 0 0 0 4.38,4.53 h 0.51 c 2.31,-0.08 8.65,-1.13 10.77,-3.13 0.14,-0.13 0.26,-0.27 0.4,-0.4 0,-2.86 -0.08,-5.46 -0.08,-5.46 l -0.08,-1.16 c 0,-0.78 0,-1.61 -0.06,-2.46 0,-0.12 0,-0.27 0,-0.43 a 11.67,11.67 0 0 0 -3.71,-9.41 c -2.89,-2.55 -7.32,-3.87 -13.17,-3.89 h -1 c -7.85,0 -17,3.58 -17,13.66 v 12.56 c 0,10.09 9.16,13.67 17,13.67 h 1 c 8.21,0 10.27,-1.32 13.16,-3.86 a 10.62,10.62 0 0 0 3.35,-5.57 c 0.07,-0.32 -0.36,-0.55 -0.71,-0.4 -3.38,1.51 -7.61,2.85 -10.12,2.91"
     id="path48" />
  <path
     class="cls-1"
     d="m 24.88,27.048184 c 0,0 0.67,-0.34 0.67,0.38 0,0.72 0.9,-0.46 0.9,-0.46 l 0.17,-1.26 h -2.14 z"
     id="path50" />
  <path
     class="cls-1"
     d="m 25.4,31.838184 a 0.81,0.81 0 0 0 0.16,-0.49 c 0,-0.31 0.65,-0.11 0.65,-0.11 l -0.11,0.74 z"
     id="path52" />
  <path
     class="cls-1"
     d="m 34.92,39.758184 a 0.74,0.74 0 0 0 0.18,-0.48 c 0,-0.22 0.28,0.29 0.28,0.29 l -0.28,0.31 c 0,0 -0.27,-0.03 -0.18,-0.12 z"
     id="path54" />
  <path
     class="cls-1"
     d="m 65.43,24.948184 h 3.52 l 0.49,-8 h 9.62 v 8 h 5.25 v 8 h -5 v 10.1 c 0,2 0.78,2.72 2.33,2.72 a 26.87,26.87 0 0 0 3.16,-0.29 l 0.51,7.81 a 26.77,26.77 0 0 1 -6.88,0.8 c -5.23,0 -8.38,-1.89 -9.24,-6.08 -0.86,-4.19 -0.49,-10 -0.49,-15.06 h -3.24 z"
     id="path56" />
  <path
     class="cls-1"
     d="m 98.54,24.948184 0.49,3.33 c 2.07,-1.78 5.4,-3.88 8.75,-3.9 v 10.1 a 17.24,17.24 0 0 0 -7.83,2.26 v 16.79 H 89.36 v -28.58 z"
     id="path58" />
  <path
     class="cls-1"
     d="m 116.78,11.688184 c 3.62,0 5.57,1.61 5.57,5.17 0,3.56 -1.96,5.16 -5.57,5.16 -3.61,0 -5.57,-1.6 -5.57,-5.16 0,-3.56 1.95,-5.17 5.57,-5.17 z m 5.31,13.26 v 28.58 h -10.63 v -28.58 z"
     id="path60" />
  <path
     class="cls-1"
     d="m 126.78,36.998184 c 0,-8.12 4.91,-12.62 13.35,-12.62 8.09,0 12.82,4.56 12.82,12.71 0,1.16 -0.06,2.17 -0.12,2.94 a 1.75,1.75 0 0 1 -1.65,1.62 l -14.18,0.75 v 0 c 0,2.41 1.86,3.61 6,3.61 a 48.47,48.47 0 0 0 8.61,-0.83 l 0.83,7.6 a 43.91,43.91 0 0 1 -11.42,1.34 c -8.63,0 -14.24,-4.18 -14.24,-12.24 z m 10.22,-0.29 h 6.28 v -0.8 c 0,-2.41 -0.83,-4 -3.15,-4 -2.07,0 -3.13,1.32 -3.13,3.56 z"
     id="path62" />
  <path
     class="cls-1"
     d="m 155.12,24.948184 h 3.53 l 0.49,-8 h 9.64 v 8 h 5.25 v 8 h -5 v 10.1 c 0,2 0.77,2.72 2.32,2.72 a 26.65,26.65 0 0 0 3.16,-0.29 l 0.52,7.81 a 26.8,26.8 0 0 1 -6.89,0.8 c -5.22,0 -8.38,-1.89 -9.24,-6.08 -0.86,-4.19 -0.49,-10 -0.49,-15.06 h -3.24 z"
     id="path64" />
  <path
     class="cls-1"
     d="m 189.44,16.868184 v 10.4 a 16.76,16.76 0 0 1 8.78,-2.89 c 5.46,0 8.44,3 8.44,8.52 v 20.63 h -10.62 v -17.3 a 2.29,2.29 0 0 0 -2.52,-2.61 7.34,7.34 0 0 0 -3.85,1.37 v 18.54 h -10.61 v -36.66 z"
     id="path66" />
  <path
     class="cls-1"
     d="m 217.57,11.688184 c 3.62,0 5.57,1.61 5.57,5.17 0,3.56 -1.95,5.16 -5.57,5.16 -3.62,0 -5.57,-1.6 -5.57,-5.16 0,-3.56 1.95,-5.17 5.57,-5.17 z m 5.31,13.26 v 28.58 h -10.62 v -28.58 z"
     id="path68" />
  <path
     class="cls-1"
     d="m 238.12,40.928184 c 0,3 1.9,4.79 5,4.79 a 25.05,25.05 0 0 0 5.26,-0.63 l 0.6,8.15 a 37.05,37.05 0 0 1 -8,0.86 c -7.8,0 -12.51,-3.64 -13.17,-10.64 a 26.36,26.36 0 0 1 -0.11,-2.7 v -3 a 26,26 0 0 1 0.11,-2.7 c 0.66,-6.92 5.42,-10.67 13.06,-10.67 a 39.57,39.57 0 0 1 8.12,1 l -1,8.18 a 20.64,20.64 0 0 0 -5,-0.78 4.5,4.5 0 0 0 -4.82,4.83 z"
     id="path70" />
  <path
     class="cls-1"
     d="m 264.69,44.378184 v 9 h -9.32 v -9 z"
     id="path72" />
</svg>
