<?xml version="1.0" encoding="UTF-8" standalone="no"?>
<!-- Generator: Adobe Illustrator 25.4.1, SVG Export Plug-In . SVG Version: 6.00 Build 0)  -->

<svg
   version="1.1"
   id="Layer_1"
   x="0px"
   y="0px"
   viewBox="0 0 300 300"
   xml:space="preserve"
   sodipodi:docname="notification.svg"
   width="300"
   height="300"
   inkscape:version="1.1 (c4e8f9e, 2021-05-24)"
   xmlns:inkscape="http://www.inkscape.org/namespaces/inkscape"
   xmlns:sodipodi="http://sodipodi.sourceforge.net/DTD/sodipodi-0.dtd"
   xmlns="http://www.w3.org/2000/svg"
   xmlns:svg="http://www.w3.org/2000/svg"><defs
   id="defs20" /><sodipodi:namedview
   id="namedview18"
   pagecolor="#ffffff"
   bordercolor="#666666"
   borderopacity="1.0"
   inkscape:pageshadow="2"
   inkscape:pageopacity="0.0"
   inkscape:pagecheckerboard="0"
   showgrid="false"
   inkscape:zoom="1.83"
   inkscape:cx="149.72678"
   inkscape:cy="150"
   inkscape:window-width="1323"
   inkscape:window-height="771"
   inkscape:window-x="0"
   inkscape:window-y="25"
   inkscape:window-maximized="0"
   inkscape:current-layer="Layer_1" />
<style
   type="text/css"
   id="style9">
	.st0{fill:#003F6E;}
</style>
<g
   id="g15">
	<g
   id="g13">
		<path
   class="st0"
   d="M 150,0 C 67.2,0 0,67.2 0,150 0,232.8 67.2,300 150,300 232.8,300 300,232.8 300,150 300,67.2 232.8,0 150,0 Z m 0,233 c -10.8,0 -19.5,-8.7 -19.5,-19.5 h 39 c 0,10.7 -8.7,19.5 -19.5,19.5 z m 65.9,-39.1 v 0 0 c 0,7.2 -5.8,7.7 -13.1,7.7 H 97.2 c -7.2,0 -13,-0.5 -13,-7.7 v -1.2 c 0,-5.2 3,-9.6 7.4,-11.7 l 4.1,-35.8 c 0,-26.2 18.5,-48 43.2,-53.2 V 78.1 c 0,-6.2 5,-11.2 11.2,-11.2 6.2,0 11.2,5 11.2,11.2 V 92 c 24.6,5.2 43.2,27 43.2,53.2 l 4.1,35.8 c 4.4,2.1 7.4,6.5 7.4,11.7 v 1.2 z"
   id="path11" />
	</g>
</g>
</svg>
