<?xml version="1.0" encoding="UTF-8" standalone="no"?>
<!-- Generator: Adobe Illustrator 25.4.1, SVG Export Plug-In . SVG Version: 6.00 Build 0)  -->

<svg
   version="1.1"
   id="Capa_1"
   x="0px"
   y="0px"
   viewBox="0 0 462.40042 269.60001"
   xml:space="preserve"
   sodipodi:docname="truck.svg"
   width="462.40042"
   height="269.60001"
   inkscape:version="1.1 (c4e8f9e, 2021-05-24)"
   xmlns:inkscape="http://www.inkscape.org/namespaces/inkscape"
   xmlns:sodipodi="http://sodipodi.sourceforge.net/DTD/sodipodi-0.dtd"
   xmlns="http://www.w3.org/2000/svg"
   xmlns:svg="http://www.w3.org/2000/svg"><defs
   id="defs16" /><sodipodi:namedview
   id="namedview14"
   pagecolor="#ffffff"
   bordercolor="#666666"
   borderopacity="1.0"
   inkscape:pageshadow="2"
   inkscape:pageopacity="0.0"
   inkscape:pagecheckerboard="0"
   showgrid="false"
   inkscape:zoom="1.187027"
   inkscape:cx="230.82878"
   inkscape:cy="135.21175"
   inkscape:window-width="1323"
   inkscape:window-height="771"
   inkscape:window-x="0"
   inkscape:window-y="25"
   inkscape:window-maximized="0"
   inkscape:current-layer="Capa_1" />
<style
   type="text/css"
   id="style9">
	.st0{fill:#003F6E;}
</style>
<path
   class="st0"
   d="m 433,125.9 c -1.5,-0.3 -2.8,-0.6 -4,-0.9 -13.8,-3.6 -20.1,-5.6 -24.8,-14.6 L 386.5,74.6 C 380.8,63.6 366.2,54.7 353.8,54.7 H 322.3 V 13.4 C 322.3,6 316.3,0 308.8,0 L 89.8,0.2 C 82.6,0.2 77.1,5.9 77.1,13.5 V 25.7 H 21 c -11.6,0 -21,9.4 -21,21 0,11.6 9.4,21 21,21 H 77.1 V 87.8 H 40.4 c -11.6,0 -21,9.4 -21,21 0,11.6 9.4,21 21,21 h 36.7 v 20.1 H 59.8 c -11.6,0 -21,9.4 -21,21 0,11.6 9.4,21 21,21 H 77.2 V 213 c 0,7.4 6,13.5 13.4,13.5 h 22.8 c 3.5,24.3 24.5,43.1 49.8,43.1 25.3,0 46.3,-18.7 49.8,-43.1 h 92.2 c 0.5,0 1,0 1.5,-0.1 3.5,24.4 24.5,43.1 49.8,43.1 25.3,0 46.3,-18.7 49.8,-43.1 H 439 c 12.9,0 23.4,-10.5 23.4,-23.4 v -39.6 c 0.1,-31.3 -17.7,-35.1 -29.4,-37.5 z m -76.4,75.2 c 10.1,0 18.3,8.2 18.3,18.3 0,10.1 -8.2,18.3 -18.3,18.3 -10.1,0 -18.3,-8.2 -18.3,-18.3 0,-10.1 8.2,-18.3 18.3,-18.3 z M 322.3,123 V 74.2 h 24 c 9.2,0 20.6,6.9 24.9,15.1 l 15.7,31.8 c 0.3,0.6 0.7,1.3 1,1.8 z m -140.8,96.4 c 0,10.1 -8.2,18.3 -18.3,18.3 -10.1,0 -18.3,-8.2 -18.3,-18.3 0,-10.1 8.2,-18.3 18.3,-18.3 10.1,0 18.3,8.2 18.3,18.3 z"
   id="path11" />
</svg>
